<svg width="173" height="278" viewBox="0 0 173 278" fill="none" xmlns="http://www.w3.org/2000/svg">
<path d="M59.0625 1.55469H57.5625V3.05469V274.383V275.883H59.0625H76.7578H78.2578V274.383V3.05469V1.55469H76.7578H59.0625ZM88.3295 28.8947L85.875 26.87V30.0518V43.6949V44.4218L86.4455 44.8722C90.745 48.2666 95.0949 51.4962 99.4414 54.6114V166.441V167.941H100.941H111.559H113.059V166.441V63.9386C120.893 69.0514 128.945 73.824 137.191 78.243V166.441V167.941H138.691H149.309H150.809V166.441V85.1315C158.783 88.9418 166.814 92.3773 174.941 95.354V166.441V167.941H176.441H187.059H188.559V166.441V100.011C196.547 102.514 204.618 104.601 212.691 106.315V166.441V167.941H214.191H224.809H226.309V166.441V108.793C234.328 110.003 242.359 110.882 250.441 111.304V166.441V167.941H251.941H262.559H264.059V166.441V111.677C270.871 111.679 277.72 111.332 284.504 110.781L285.883 110.669V109.286V99.0223V97.376L284.244 97.5287C217.007 103.796 149.969 79.7401 88.3295 28.8947ZM49.9453 32.3345L47.0833 31.706C35.3493 57.1328 19.9074 79.5955 2.51078 98.5993L2.11719 99.0292V99.6121V115.066V118.685L4.67744 116.127C11.3549 109.455 17.8063 102.287 23.9414 94.6631V166.441V167.941H25.4414H36.0586H37.5586V166.441V76.2428C41.8514 69.8976 45.9284 63.3213 49.7554 56.4583L49.9453 56.1177V55.7277V32.3345ZM3.61719 175.559H2.11719V177.059V194.754V196.254H3.61719H48.4453H49.9453V194.754V177.059V175.559H48.4453H3.61719ZM87.375 175.559H85.875V177.059V194.754V196.254H87.375H284.383H285.883V194.754V177.059V175.559H284.383H87.375Z" fill="#E70002" stroke="black" stroke-width="3"/>
</svg>
