<svg width="317" height="261" viewBox="0 0 317 261" fill="none" xmlns="http://www.w3.org/2000/svg">
<path d="M-95.4382 -446.784C-65.5904 -465.823 -27.4096 -465.823 2.4382 -446.783L8.80746 -442.721C25.6382 -431.985 45.5323 -427.081 65.4245 -428.766L72.9522 -429.403C108.229 -432.391 142.036 -414.647 159.617 -383.918L163.369 -377.361C173.283 -360.033 188.619 -346.446 207.016 -338.693L213.978 -335.759C246.602 -322.01 268.291 -290.588 269.578 -255.208L269.852 -247.659C270.578 -227.708 277.843 -208.55 290.53 -193.136L295.331 -187.303C317.829 -159.968 322.431 -122.066 307.128 -90.1406L303.863 -83.3281C295.234 -65.326 292.764 -44.9858 296.834 -25.4418L298.374 -18.0458C305.592 16.6137 292.053 52.3135 263.667 73.4703L257.61 77.9849C241.603 89.9149 229.964 106.777 224.485 125.974L222.412 133.239C212.696 167.283 184.117 192.601 149.15 198.143L141.689 199.326C121.971 202.45 103.829 211.972 90.0563 226.424L84.8445 231.893C60.4203 257.522 23.349 266.659 -10.1878 255.317L-17.3443 252.896C-36.2553 246.5 -56.7448 246.5 -75.6557 252.896L-82.8122 255.317C-116.349 266.659 -153.42 257.522 -177.844 231.893L-183.056 226.424C-196.829 211.972 -214.971 202.45 -234.689 199.326L-242.15 198.143C-277.117 192.601 -305.696 167.283 -315.412 133.239L-317.485 125.974C-322.964 106.777 -334.603 89.9149 -350.61 77.9849L-356.667 73.4703C-385.053 52.3135 -398.592 16.6137 -391.374 -18.0458L-389.834 -25.4418C-385.764 -44.9859 -388.234 -65.326 -396.863 -83.3281L-400.128 -90.1406C-415.431 -122.066 -410.829 -159.968 -388.331 -187.303L-383.53 -193.136C-370.843 -208.55 -363.578 -227.708 -362.852 -247.659L-362.578 -255.208C-361.291 -290.588 -339.602 -322.01 -306.978 -335.759L-300.016 -338.693C-281.619 -346.446 -266.283 -360.033 -256.369 -377.361L-252.617 -383.918C-235.037 -414.647 -201.229 -432.391 -165.952 -429.403L-158.424 -428.766C-138.532 -427.081 -118.638 -431.985 -101.807 -442.721L-95.4382 -446.784Z" fill="#E70002"/>
</svg>
