<svg width="372" height="19" viewBox="0 0 372 19" fill="none" xmlns="http://www.w3.org/2000/svg">
<path fill-rule="evenodd" clip-rule="evenodd" d="M157.992 1.73357C140.516 2.32765 123.244 3.05813 106.402 3.85673C82.5593 4.98645 58.7261 6.15514 35.0365 8.00555C27.5795 8.58989 20.0069 8.95996 12.5966 9.69038C7.94482 10.1481 1.77671 10.8005 0.967228 10.9369C0.543834 11.0148 0.359121 11.1318 0.299436 11.1707C-0.120228 11.4434 -0.0436551 11.7063 0.193222 11.9108C0.288346 11.9984 0.528886 12.2128 1.19662 12.242C45.8526 14.2385 91.5158 10.3429 136.226 9.93386C213.761 9.23265 293.647 12.018 370.566 18.0951C371.238 18.1438 371.891 17.9003 371.984 17.54C372.096 17.1894 371.611 16.8485 370.94 16.7998C293.889 10.7129 213.873 7.9178 136.189 8.62875C94.5206 9.00857 52.0301 12.427 10.3043 11.2583C11.263 11.161 12.2031 11.0635 13.061 10.9759C20.4415 10.2455 27.9824 9.88514 35.4095 9.3008C59.0488 7.45039 82.8335 6.28171 106.644 5.16172C136.189 3.7593 167.02 2.55166 198.094 1.9868C209.21 2.07445 220.289 2.16214 231.368 2.26926C255.336 2.503 279.415 3.18474 303.327 4.1002C310.527 4.38263 317.726 4.67478 324.926 4.92799C327.313 5.01565 333.468 5.26882 334.326 5.24934C335.389 5.22986 335.594 4.76243 335.613 4.68452C335.669 4.50922 335.632 4.26573 335.109 4.06121C335.053 4.03199 334.718 3.93454 333.972 3.87611C290.494 0.428497 244.07 -0.146014 198.131 0.681802C149.674 0.321459 101.03 0.165563 52.696 0C52.004 0 51.4389 0.292213 51.4333 0.652556C51.4295 1.0129 51.9872 1.30512 52.6791 1.31486C87.6773 1.43173 122.853 1.54853 157.992 1.73357Z" fill="white"/>
</svg>
