<svg width="123" height="257" viewBox="0 0 123 257" fill="none" xmlns="http://www.w3.org/2000/svg">
<path d="M123.285 256V1H133.713V256H123.285Z" stroke="#E70002" stroke-width="2"/>
<path d="M1 133.713V123.286H256V133.713H1Z" stroke="#E70002" stroke-width="2"/>
<path d="M214.943 222.332L34.6329 42.0219L42.0062 34.6487L222.317 214.959L214.943 222.332Z" stroke="#E70002" stroke-width="2"/>
<path d="M42.0091 222.331L34.6359 214.957L214.946 34.647L222.32 42.0202L42.0091 222.331Z" stroke="#E70002" stroke-width="2"/>
<path d="M244.648 181.475L8.49285 85.2638L12.4271 75.6069L248.583 171.818L244.648 181.475Z" stroke="#E70002" stroke-width="2"/>
<path d="M85.262 248.599L75.6052 244.665L171.817 8.5092L181.474 12.4435L85.262 248.599Z" stroke="#E70002" stroke-width="2"/>
<path d="M12.2533 180.928L8.35969 171.255L244.923 76.0376L248.817 85.7111L12.2533 180.928Z" stroke="#E70002" stroke-width="2"/>
<path d="M171.176 248.821L75.9846 12.2574L85.6582 8.36483L180.85 244.928L171.176 248.821Z" stroke="#E70002" stroke-width="2"/>
</svg>
