<svg width="151" height="332" viewBox="0 0 151 332" fill="none" xmlns="http://www.w3.org/2000/svg">
<path d="M-105.89 28.8069C-78.8382 10.6769 -47.0344 1 -14.5 1C29.1271 1 70.9679 18.3833 101.818 49.3264C132.668 80.2697 150 122.238 150 166C150 198.634 140.352 230.536 122.276 257.67C104.2 284.805 78.5086 305.952 48.4505 318.44C18.3924 330.928 -14.6823 334.196 -46.5916 327.83C-78.5009 321.463 -107.812 305.749 -130.818 282.674C-153.824 259.598 -169.491 230.198 -175.839 198.191C-182.186 166.183 -178.929 133.006 -166.478 102.856C-154.027 72.706 -132.942 46.937 -105.89 28.8069ZM-56.0556 228.378C-43.754 236.617 -29.2926 241.013 -14.4997 241.008C5.33156 241.002 24.3478 233.096 38.3676 219.029C52.3872 204.963 60.2626 185.888 60.2626 166C60.2626 151.164 55.876 136.662 47.6579 124.327C39.4397 111.991 27.7585 102.376 14.0915 96.6995C0.424515 91.0226 -14.614 89.5385 -29.1222 92.4348C-43.6303 95.3311 -56.9558 102.478 -67.4136 112.97C-77.8714 123.463 -84.9916 136.831 -87.8743 151.382C-90.7571 165.933 -89.2728 181.015 -83.6093 194.72C-77.9457 208.425 -68.3571 220.138 -56.0556 228.378Z" stroke="#FFC700" stroke-width="2"/>
</svg>
