<svg width="18" height="19" viewBox="0 0 18 19" fill="none" xmlns="http://www.w3.org/2000/svg">
<path fill-rule="evenodd" clip-rule="evenodd" d="M5.66602 0.833252C6.12625 0.833252 6.49935 1.20635 6.49935 1.66659V2.49992H11.4993V1.66659C11.4993 1.20635 11.8724 0.833252 12.3327 0.833252C12.7929 0.833252 13.166 1.20635 13.166 1.66659V2.49992H13.9993C15.8403 2.49992 17.3327 3.9923 17.3327 5.83325V14.9999C17.3327 16.8409 15.8403 18.3333 13.9993 18.3333H3.99935C2.1584 18.3333 0.666016 16.8409 0.666016 14.9999V5.83325C0.666016 3.9923 2.1584 2.49992 3.99935 2.49992H4.83268V1.66659C4.83268 1.20635 5.20578 0.833252 5.66602 0.833252ZM11.4993 4.16659C11.4993 4.62682 11.8724 4.99992 12.3327 4.99992C12.7929 4.99992 13.166 4.62682 13.166 4.16659H13.9993C14.9198 4.16659 15.666 4.91278 15.666 5.83325V6.24992H2.33268V5.83325C2.33268 4.91278 3.07887 4.16659 3.99935 4.16659H4.83268C4.83268 4.62682 5.20578 4.99992 5.66602 4.99992C6.12625 4.99992 6.49935 4.62682 6.49935 4.16659H11.4993ZM15.666 7.91659H2.33268V14.9999C2.33268 15.9204 3.07887 16.6666 3.99935 16.6666H13.9993C14.9198 16.6666 15.666 15.9204 15.666 14.9999V7.91659Z" fill="#667185"/>
</svg>
