<svg width="40" height="40" viewBox="0 0 40 40" fill="none" xmlns="http://www.w3.org/2000/svg">
<circle cx="20" cy="20" r="20" fill="#C7FFD5"/>
<circle cx="20" cy="20" r="12" fill="#01B72F"/>
<path d="M21.616 14.2176C21.7968 14.0323 22.0126 13.8848 22.2508 13.7835C22.489 13.6823 22.745 13.6293 23.0038 13.6277C23.2627 13.6261 23.5193 13.6759 23.7587 13.7742C23.9982 13.8725 24.2158 14.0174 24.3988 14.2004C24.5819 14.3834 24.7268 14.6009 24.8252 14.8404C24.9236 15.0798 24.9734 15.3364 24.9719 15.5952C24.9704 15.8541 24.9175 16.11 24.8163 16.3483C24.7151 16.5865 24.5676 16.8024 24.3824 16.9832L23.3648 18L23.4336 18.0688C23.5823 18.2174 23.7002 18.3938 23.7806 18.5879C23.8611 18.7821 23.9025 18.9902 23.9025 19.2004C23.9025 19.4106 23.8611 19.6187 23.7806 19.8128C23.7002 20.007 23.5823 20.1834 23.4336 20.332L22.2816 21.4832C22.2062 21.5561 22.1052 21.5964 22.0003 21.5955C21.8954 21.5945 21.7951 21.5525 21.7209 21.4783C21.6467 21.4042 21.6047 21.3038 21.6038 21.199C21.6029 21.0941 21.6432 20.993 21.716 20.9176L22.868 19.7656C23.018 19.6156 23.1023 19.4121 23.1023 19.2C23.1023 18.9879 23.018 18.7844 22.868 18.6344L22.7992 18.5656L17.4824 23.8832C17.431 23.9344 17.3665 23.9706 17.296 23.988L14.096 24.788C14.0265 24.8053 13.9537 24.8035 13.8851 24.783C13.8165 24.7625 13.7547 24.724 13.706 24.6715C13.6574 24.6189 13.6238 24.5543 13.6086 24.4843C13.5935 24.4143 13.5974 24.3415 13.62 24.2736L14.62 21.2736C14.6395 21.2149 14.6724 21.1615 14.716 21.1176L21.6168 14.2176H21.616ZM23.816 14.7832C23.5993 14.5668 23.3055 14.4452 22.9992 14.4452C22.693 14.4452 22.3992 14.5668 22.1824 14.7832L15.3488 21.616L14.6088 23.8352L16.9944 23.2392L23.816 16.4176C24.0327 16.2008 24.1544 15.9069 24.1544 15.6004C24.1544 15.2939 24.0327 15 23.816 14.7832ZM14.5728 25.4936L14.6136 25.524C15.208 25.956 16.0888 26.4 17.1992 26.4C17.7936 26.4 18.3384 26.192 18.8224 25.9168C19.3048 25.6416 19.7528 25.2848 20.1512 24.9608L20.2448 24.8848C20.616 24.5824 20.9344 24.324 21.2272 24.1512C21.5496 23.9608 21.7424 23.9368 21.8728 23.98C22.0848 24.0504 22.2056 24.2144 22.416 24.9152C22.4856 25.1488 22.6104 25.4032 22.7928 25.6088C22.976 25.8144 23.248 26.0008 23.5992 26.0008C23.9784 26.0008 24.3536 25.8176 24.6432 25.6472C24.8344 25.5344 25.0392 25.3928 25.2056 25.2792C25.288 25.2232 25.36 25.1728 25.4168 25.1352C25.6312 24.9968 25.812 24.9072 25.936 24.8528C25.9976 24.8256 26.0448 24.8072 26.0752 24.7968L26.1072 24.7856L26.112 24.784C26.2139 24.7542 26.2997 24.6851 26.3506 24.592C26.4016 24.4989 26.4134 24.3894 26.3836 24.2876C26.3538 24.1857 26.2848 24.0999 26.1917 24.049C26.0986 23.998 25.9891 23.9862 25.8872 24.016H25.8864L25.884 24.0176L25.8784 24.0192L25.8616 24.0248L25.8056 24.0432C25.7407 24.0665 25.6767 24.0921 25.6136 24.12C25.3941 24.2175 25.1827 24.3326 24.9816 24.464C24.888 24.5256 24.7976 24.5872 24.708 24.6496C24.5549 24.7582 24.3977 24.8609 24.2368 24.9576C23.964 25.1192 23.7488 25.2 23.5992 25.2C23.5512 25.2 23.4792 25.176 23.3912 25.0768C23.295 24.9621 23.2239 24.8286 23.1824 24.6848C22.9904 24.0448 22.7824 23.44 22.1264 23.2208C21.656 23.064 21.1984 23.2392 20.8208 23.4616C20.4728 23.6672 20.1072 23.9656 19.7512 24.2552L19.6472 24.34C19.2456 24.6656 18.844 24.9832 18.4264 25.2216C18.0104 25.4584 17.6048 25.6 17.1992 25.6C16.6024 25.6 16.0824 25.44 15.652 25.224L14.5728 25.4936Z" fill="white"/>
</svg>
