<svg width="20" height="18" viewBox="0 0 20 18" fill="none" xmlns="http://www.w3.org/2000/svg">
<path fill-rule="evenodd" clip-rule="evenodd" d="M11.9118 0.987326C10.764 0.183913 9.23642 0.183911 8.08868 0.987325L2.35737 4.99925C1.39185 5.67511 0.855001 6.81058 0.945392 7.98567L1.53291 15.6234C1.64371 17.0638 2.94888 18.1108 4.3791 17.9065L7.02044 17.5292C8.25207 17.3532 9.16689 16.2984 9.16689 15.0543V13.9998C9.16689 13.5396 9.53998 13.1665 10.0002 13.1665C10.4605 13.1665 10.8336 13.5396 10.8336 13.9998V15.0543C10.8336 16.2984 11.7484 17.3532 12.98 17.5292L15.6214 17.9065C17.0516 18.1108 18.3567 17.0639 18.4675 15.6234L19.0551 7.98568C19.1454 6.81059 18.6086 5.67511 17.6431 4.99925L11.9118 0.987326ZM9.04445 2.35271C9.61832 1.95101 10.3821 1.95101 10.956 2.35271L16.6873 6.36463C17.1701 6.70256 17.4385 7.2703 17.3933 7.85785L16.8058 15.4955C16.7688 15.9757 16.3338 16.3247 15.8571 16.2566L13.2157 15.8793C12.8052 15.8206 12.5002 15.469 12.5002 15.0543V13.9998C12.5002 12.6191 11.3809 11.4998 10.0002 11.4998C8.61951 11.4998 7.50022 12.6191 7.50022 13.9998V15.0543C7.50022 15.469 7.19528 15.8206 6.78474 15.8793L4.1434 16.2566C3.66666 16.3247 3.2316 15.9757 3.19467 15.4955L2.60715 7.85785C2.56195 7.2703 2.83038 6.70256 3.31314 6.36463L9.04445 2.35271Z" fill="#667185"/>
</svg>
