<svg width="138" height="122" viewBox="0 0 138 122" fill="none" xmlns="http://www.w3.org/2000/svg">
<path d="M66 11.75C32.1758 11.75 4.75 39.1758 4.75 73C4.75 106.824 32.1758 134.25 66 134.25C99.8242 134.25 127.25 106.824 127.25 73C127.25 39.1758 99.8242 11.75 66 11.75ZM66 123.859C37.918 123.859 15.1406 101.082 15.1406 73C15.1406 44.918 37.918 22.1406 66 22.1406C94.082 22.1406 116.859 44.918 116.859 73C116.859 101.082 94.082 123.859 66 123.859ZM84.8672 95.1758H60.2305V94.5332C63.9766 92.1816 66.2324 87.6426 66.2324 82.0781C66.2324 80.1504 65.9316 78.2637 65.5078 76.4727H78.9883C79.5898 76.4727 80.082 75.9805 80.082 75.3789V71.2773C80.082 70.6758 79.5898 70.1836 78.9883 70.1836H63.6758C62.6914 67.0938 61.8438 63.9355 61.8438 60.5449C61.8438 54.5977 66.4922 50.9473 73.7793 50.9473C76.7188 50.9473 79.5898 51.5078 82.0371 52.3828C82.748 52.6426 83.4863 52.1094 83.4863 51.3438V45.9434C83.4863 45.4922 83.1992 45.082 82.7754 44.918C80.2051 43.9336 76.7871 43.1816 73.1641 43.1816C60.4629 43.1816 52.4512 49.2656 52.4512 59.6289C52.4512 63.2246 53.3945 66.7383 54.4473 70.1699H47.1328C46.5312 70.1699 46.0391 70.6621 46.0391 71.2637V75.3652C46.0391 75.9668 46.5312 76.459 47.1328 76.459H56.3066C56.7715 78.4688 57.1133 80.4785 57.1133 82.502C57.1133 88.6816 53.1758 93.8906 47.1602 95.3809C46.668 95.5039 46.3262 95.9414 46.3262 96.4473V101.711C46.3262 102.312 46.8184 102.805 47.4199 102.805H84.8672C85.4688 102.805 85.9609 102.312 85.9609 101.711V96.2695C85.9609 95.668 85.4688 95.1758 84.8672 95.1758Z" fill="#6E3925"/>
<path d="M70 8.75C36.1758 8.75 8.75 36.1758 8.75 70C8.75 103.824 36.1758 131.25 70 131.25C103.824 131.25 131.25 103.824 131.25 70C131.25 36.1758 103.824 8.75 70 8.75ZM70 120.859C41.918 120.859 19.1406 98.082 19.1406 70C19.1406 41.918 41.918 19.1406 70 19.1406C98.082 19.1406 120.859 41.918 120.859 70C120.859 98.082 98.082 120.859 70 120.859ZM88.8672 92.1758H64.2305V91.5332C67.9766 89.1816 70.2324 84.6426 70.2324 79.0781C70.2324 77.1504 69.9316 75.2637 69.5078 73.4727H82.9883C83.5898 73.4727 84.082 72.9805 84.082 72.3789V68.2773C84.082 67.6758 83.5898 67.1836 82.9883 67.1836H67.6758C66.6914 64.0938 65.8438 60.9355 65.8438 57.5449C65.8438 51.5977 70.4922 47.9473 77.7793 47.9473C80.7188 47.9473 83.5898 48.5078 86.0371 49.3828C86.748 49.6426 87.4863 49.1094 87.4863 48.3438V42.9434C87.4863 42.4922 87.1992 42.082 86.7754 41.918C84.2051 40.9336 80.7871 40.1816 77.1641 40.1816C64.4629 40.1816 56.4512 46.2656 56.4512 56.6289C56.4512 60.2246 57.3945 63.7383 58.4473 67.1699H51.1328C50.5312 67.1699 50.0391 67.6621 50.0391 68.2637V72.3652C50.0391 72.9668 50.5312 73.459 51.1328 73.459H60.3066C60.7715 75.4688 61.1133 77.4785 61.1133 79.502C61.1133 85.6816 57.1758 90.8906 51.1602 92.3809C50.668 92.5039 50.3262 92.9414 50.3262 93.4473V98.7109C50.3262 99.3125 50.8184 99.8047 51.4199 99.8047H88.8672C89.4688 99.8047 89.9609 99.3125 89.9609 98.7109V93.2695C89.9609 92.668 89.4688 92.1758 88.8672 92.1758Z" fill="#D42620"/>
</svg>
