<svg width="28" height="24" viewBox="0 0 28 24" fill="none" xmlns="http://www.w3.org/2000/svg">
<path d="M25.6098 0.390524C26.1305 0.911223 26.1305 1.75544 25.6098 2.27614L4.27647 23.6095C3.75577 24.1302 2.91155 24.1302 2.39085 23.6095C1.87015 23.0888 1.87015 22.2446 2.39085 21.7239L23.7242 0.390524C24.2449 -0.130175 25.0891 -0.130175 25.6098 0.390524Z" fill="#667185"/>
<path d="M19.0663 3.16272C17.5646 2.4555 15.8714 2 14.0003 2C10.0748 2 6.93201 4.00492 4.69845 6.1329C2.45975 8.26578 1.00713 10.6396 0.43211 11.6664C0.0552818 12.3393 0.0104012 13.1428 0.319719 13.8565C0.535736 14.3549 0.903103 15.127 1.44457 16.023C1.82544 16.6532 2.6451 16.8553 3.27533 16.4745C3.90556 16.0936 4.10771 15.2739 3.72684 14.6437C3.29134 13.9231 2.98914 13.2999 2.80584 12.8859C3.34684 11.9324 4.62812 9.88309 6.53788 8.0636C8.51051 6.18422 11.027 4.66667 14.0003 4.66667C15.0697 4.66667 16.08 4.86299 17.0272 5.20185L19.0663 3.16272Z" fill="#667185"/>
<path d="M21.5877 8.18385C23.4284 9.97261 24.6656 11.9534 25.1948 12.8859C25.0115 13.2999 24.7093 13.9231 24.2738 14.6437C23.8929 15.2739 24.095 16.0936 24.7253 16.4745C25.3555 16.8553 26.1752 16.6532 26.556 16.023C27.0975 15.127 27.4649 14.3549 27.6809 13.8565C27.9902 13.1428 27.9453 12.3393 27.5685 11.6664C27.0083 10.666 25.6151 8.3871 23.4735 6.29807L21.5877 8.18385Z" fill="#667185"/>
<path d="M14.0003 8C14.0754 8 14.1501 8.00155 14.2245 8.00462L8.67162 13.5575C8.66854 13.4831 8.66699 13.4084 8.66699 13.3333C8.66699 10.3878 11.0548 8 14.0003 8Z" fill="#667185"/>
<path d="M14.0003 18.6667C13.1567 18.6667 12.3587 18.4708 11.6496 18.122L18.789 10.9826C19.1378 11.6917 19.3337 12.4897 19.3337 13.3333C19.3337 16.2789 16.9458 18.6667 14.0003 18.6667Z" fill="#667185"/>
</svg>
