<svg width="16" height="20" viewBox="0 0 16 20" fill="none" xmlns="http://www.w3.org/2000/svg">
<path d="M3.83333 9.99992C3.83333 9.53968 4.20643 9.16658 4.66667 9.16658H11.3333C11.7936 9.16658 12.1667 9.53968 12.1667 9.99992C12.1667 10.4602 11.7936 10.8333 11.3333 10.8333H4.66667C4.20643 10.8333 3.83333 10.4602 3.83333 9.99992Z" fill="#667185"/>
<path d="M4.66667 13.3333C4.20643 13.3333 3.83333 13.7063 3.83333 14.1666C3.83333 14.6268 4.20643 14.9999 4.66667 14.9999H11.3333C11.7936 14.9999 12.1667 14.6268 12.1667 14.1666C12.1667 13.7063 11.7936 13.3333 11.3333 13.3333H4.66667Z" fill="#667185"/>
<path fill-rule="evenodd" clip-rule="evenodd" d="M3.83333 0.833252C1.99238 0.833252 0.5 2.32564 0.5 4.16658V15.8333C0.5 17.6742 1.99238 19.1666 3.83333 19.1666H12.1667C14.0076 19.1666 15.5 17.6742 15.5 15.8333V7.57171C15.5 6.79192 15.2266 6.03681 14.7274 5.43776L11.8898 2.03264C11.2565 1.27266 10.3183 0.833252 9.32906 0.833252H3.83333ZM2.16667 4.16658C2.16667 3.24611 2.91286 2.49992 3.83333 2.49992H8.83333V4.99992C8.83333 6.84087 10.3257 8.33325 12.1667 8.33325H13.8333V15.8333C13.8333 16.7537 13.0871 17.4999 12.1667 17.4999H3.83333C2.91286 17.4999 2.16667 16.7537 2.16667 15.8333V4.16658ZM13.5661 6.66658C13.5299 6.61053 13.4901 6.55647 13.447 6.50474L10.6094 3.09961C10.5747 3.05797 10.5382 3.01825 10.5 2.98054V4.99992C10.5 5.92039 11.2462 6.66658 12.1667 6.66658H13.5661Z" fill="#667185"/>
</svg>
