<svg width="40" height="40" viewBox="0 0 40 40" fill="none" xmlns="http://www.w3.org/2000/svg">
<rect width="40" height="40" rx="20" fill="#F0F2F5"/>
<path fill-rule="evenodd" clip-rule="evenodd" d="M20.834 12.4998C20.834 12.0396 20.4609 11.6665 20.0006 11.6665C19.5404 11.6665 19.1673 12.0396 19.1673 12.4998V12.9756C16.3405 13.3798 14.1673 15.81 14.1673 18.7489L14.1673 22.0826C14.1673 22.0826 14.1673 22.0825 14.1673 22.0826C14.1672 22.0842 14.1666 22.0954 14.163 22.1172C14.1587 22.1435 14.151 22.1792 14.1383 22.2251C14.1125 22.3181 14.0715 22.434 14.0142 22.5711C13.8993 22.8458 13.7373 23.162 13.5582 23.4811C13.2214 24.0811 13.0516 24.796 13.1791 25.4759C13.3135 26.1928 13.775 26.8181 14.5632 27.1182C15.2673 27.3863 16.2045 27.6314 17.4422 27.7774C17.4716 27.8029 17.5064 27.8321 17.5464 27.8641C17.6717 27.9643 17.8506 28.0942 18.0768 28.2234C18.5256 28.4798 19.1891 28.7498 20.0006 28.7498C20.8121 28.7498 21.4757 28.4798 21.9245 28.2234C22.1506 28.0942 22.3295 27.9643 22.4548 27.8641C22.4948 27.8321 22.5296 27.8029 22.5591 27.7774C23.7968 27.6314 24.734 27.3863 25.4381 27.1182C26.2262 26.8181 26.6877 26.1928 26.8221 25.4759C26.9496 24.796 26.7798 24.0811 26.443 23.4811C26.2639 23.162 26.1019 22.8458 25.9871 22.5711C25.9298 22.434 25.8887 22.3181 25.863 22.2251C25.8503 22.1792 25.8426 22.1435 25.8382 22.1172C25.8346 22.0953 25.834 22.0844 25.834 22.0828C25.834 22.0827 25.834 22.0828 25.834 22.0828L25.834 22.0758V18.7493C25.834 15.8105 23.6608 13.3798 20.834 12.9756V12.4998ZM15.834 18.7489C15.834 16.4479 17.6992 14.5832 20.0006 14.5832C22.3019 14.5832 24.1673 16.4482 24.1673 18.7493V22.0832C24.1673 22.469 24.3118 22.8851 24.4494 23.2141C24.5989 23.5716 24.7948 23.9499 24.9897 24.297C25.1792 24.6345 25.2244 24.9535 25.184 25.1688C25.1506 25.347 25.0615 25.4782 24.845 25.5606C23.9493 25.9017 22.4372 26.2498 20.0006 26.2498C17.564 26.2498 16.052 25.9017 15.1562 25.5606C14.9397 25.4782 14.8506 25.347 14.8172 25.1688C14.7769 24.9535 14.822 24.6345 15.0115 24.297C15.2064 23.9499 15.4023 23.5716 15.5518 23.2141C15.6894 22.8851 15.834 22.469 15.834 22.0832V18.7489Z" fill="#344054"/>
</svg>
