<svg width="40" height="40" viewBox="0 0 40 40" fill="none" xmlns="http://www.w3.org/2000/svg">
<circle cx="20" cy="20" r="20" fill="#C7FFD5"/>
<circle cx="20" cy="20" r="12" fill="#01B72F"/>
<path d="M21 19C21 19.5304 20.7893 20.0391 20.4142 20.4142C20.0391 20.7893 19.5304 21 19 21C18.4696 21 17.9609 20.7893 17.5858 20.4142C17.2107 20.0391 17 19.5304 17 19C17 18.4696 17.2107 17.9609 17.5858 17.5858C17.9609 17.2107 18.4696 17 19 17C19.5304 17 20.0391 17.2107 20.4142 17.5858C20.7893 17.9609 21 18.4696 21 19ZM20 19C20 18.7348 19.8946 18.4804 19.7071 18.2929C19.5196 18.1054 19.2652 18 19 18C18.7348 18 18.4804 18.1054 18.2929 18.2929C18.1054 18.4804 18 18.7348 18 19C18 19.2652 18.1054 19.5196 18.2929 19.7071C18.4804 19.8946 18.7348 20 19 20C19.2652 20 19.5196 19.8946 19.7071 19.7071C19.8946 19.5196 20 19.2652 20 19ZM13 16.25C13 15.56 13.56 15 14.25 15H23.75C24.44 15 25 15.56 25 16.25V21.75C25 22.44 24.44 23 23.75 23H14.25C13.56 23 13 22.44 13 21.75V16.25ZM14.25 16C14.1837 16 14.1201 16.0263 14.0732 16.0732C14.0263 16.1201 14 16.1837 14 16.25V17H14.5C14.6326 17 14.7598 16.9473 14.8536 16.8536C14.9473 16.7598 15 16.6326 15 16.5V16H14.25ZM14 21.75C14 21.888 14.112 22 14.25 22H15V21.5C15 21.3674 14.9473 21.2402 14.8536 21.1464C14.7598 21.0527 14.6326 21 14.5 21H14V21.75ZM16 21.5V22H22V21.5C22 21.1022 22.158 20.7206 22.4393 20.4393C22.7206 20.158 23.1022 20 23.5 20H24V18H23.5C23.1022 18 22.7206 17.842 22.4393 17.5607C22.158 17.2794 22 16.8978 22 16.5V16H16V16.5C16 16.8978 15.842 17.2794 15.5607 17.5607C15.2794 17.842 14.8978 18 14.5 18H14V20H14.5C14.8978 20 15.2794 20.158 15.5607 20.4393C15.842 20.7206 16 21.1022 16 21.5ZM23 22H23.75C23.8163 22 23.8799 21.9737 23.9268 21.9268C23.9737 21.8799 24 21.8163 24 21.75V21H23.5C23.3674 21 23.2402 21.0527 23.1464 21.1464C23.0527 21.2402 23 21.3674 23 21.5V22ZM24 17V16.25C24 16.1837 23.9737 16.1201 23.9268 16.0732C23.8799 16.0263 23.8163 16 23.75 16H23V16.5C23 16.6326 23.0527 16.7598 23.1464 16.8536C23.2402 16.9473 23.3674 17 23.5 17H24ZM16.5 25C16.1832 25.0001 15.8745 24.8999 15.6182 24.7138C15.3618 24.5277 15.171 24.2652 15.073 23.964C15.212 23.988 15.354 24 15.5 24H23.75C24.3467 24 24.919 23.7629 25.341 23.341C25.7629 22.919 26 22.3467 26 21.75V17.085C26.2926 17.1884 26.5459 17.3801 26.725 17.6335C26.9041 17.8869 27.0002 18.1897 27 18.5V21.75C27 22.1768 26.9159 22.5994 26.7526 22.9937C26.5893 23.388 26.3499 23.7463 26.0481 24.0481C25.7463 24.3499 25.388 24.5893 24.9937 24.7526C24.5994 24.9159 24.1768 25 23.75 25H16.5Z" fill="white"/>
</svg>
