<svg width="40" height="40" viewBox="0 0 40 40" fill="none" xmlns="http://www.w3.org/2000/svg">
<circle cx="20" cy="20" r="20" fill="#C7FFD5"/>
<circle cx="20" cy="20" r="12" fill="#01B72F"/>
<path d="M25.875 26C25.875 26.0995 25.8355 26.1948 25.7652 26.2652C25.6948 26.3355 25.5995 26.375 25.5 26.375H14.5C14.4005 26.375 14.3052 26.3355 14.2348 26.2652C14.1645 26.1948 14.125 26.0995 14.125 26C14.125 25.9005 14.1645 25.8052 14.2348 25.7348C14.3052 25.6645 14.4005 25.625 14.5 25.625H25.5C25.5995 25.625 25.6948 25.6645 25.7652 25.7348C25.8355 25.8052 25.875 25.9005 25.875 26ZM25.875 21V23.5C25.875 23.7321 25.7828 23.9546 25.6187 24.1187C25.4546 24.2828 25.2321 24.375 25 24.375H15C14.7679 24.375 14.5454 24.2828 14.3813 24.1187C14.2172 23.9546 14.125 23.7321 14.125 23.5V21C14.125 20.7679 14.2172 20.5454 14.3813 20.3813C14.5454 20.2172 14.7679 20.125 15 20.125H18.6813L17.6675 15.3931C17.6089 15.1198 17.6121 14.8368 17.677 14.5649C17.7419 14.293 17.8667 14.0391 18.0424 13.8217C18.218 13.6042 18.4401 13.4288 18.6923 13.3083C18.9445 13.1877 19.2205 13.1251 19.5 13.125H20.5C20.7796 13.125 21.0556 13.1876 21.3079 13.3081C21.5602 13.4286 21.7823 13.604 21.9581 13.8214C22.1338 14.0389 22.2587 14.2928 22.3236 14.5648C22.3885 14.8367 22.3917 15.1198 22.3331 15.3931L21.3188 20.125H25C25.2321 20.125 25.4546 20.2172 25.6187 20.3813C25.7828 20.5454 25.875 20.7679 25.875 21ZM19.4481 20.125H20.5519L21.5994 15.2356C21.6345 15.0717 21.6325 14.9019 21.5936 14.7388C21.5547 14.5757 21.4798 14.4234 21.3744 14.293C21.269 14.1625 21.1358 14.0573 20.9845 13.985C20.8332 13.9127 20.6677 13.8751 20.5 13.875H19.5C19.3323 13.875 19.1667 13.9125 19.0153 13.9848C18.8639 14.0571 18.7306 14.1623 18.6252 14.2927C18.5197 14.4232 18.4448 14.5755 18.4058 14.7387C18.3669 14.9018 18.3649 15.0716 18.4 15.2356L19.4481 20.125ZM25.125 21C25.125 20.9668 25.1118 20.9351 25.0884 20.9116C25.0649 20.8882 25.0332 20.875 25 20.875H15C14.9668 20.875 14.9351 20.8882 14.9116 20.9116C14.8882 20.9351 14.875 20.9668 14.875 21V23.5C14.875 23.5332 14.8882 23.5649 14.9116 23.5884C14.9351 23.6118 14.9668 23.625 15 23.625H25C25.0332 23.625 25.0649 23.6118 25.0884 23.5884C25.1118 23.5649 25.125 23.5332 25.125 23.5V21Z" fill="#FAFAFA"/>
</svg>
