<svg width="1588" height="1640" viewBox="0 0 1588 1640" fill="none" xmlns="http://www.w3.org/2000/svg">
<path d="M1.55808 1.65951C530.054 0.780163 1058.55 0.780163 1587.05 1.65951C1587.38 547.255 1586.5 1092.85 1587.05 1638.45C1058.56 1637.61 530.045 1639.35 1.55808 1638.45C0.898608 1092.85 0.898608 547.255 1.55808 1.65951Z" stroke="white" stroke-opacity="0.07" stroke-width="1.30676" stroke-miterlimit="10"/>
<path d="M1.55469 1575.49C85.363 1573.72 168.347 1549.41 252.155 1552.95C316.344 1555.65 372.18 1589.76 435.462 1596.45C500.832 1603.37 547.875 1574.8 609.096 1561.49C667.212 1548.87 721.179 1560.32 777.537 1575.43C835.241 1590.87 889.675 1599.41 949.028 1590.42C1009.73 1581.43 1066.77 1560.83 1128.87 1562.18C1204.74 1563.8 1277.47 1592.16 1353.09 1596.15C1432.01 1600.31 1508.46 1576.93 1587.07 1575.34" stroke="white" stroke-opacity="0.07" stroke-width="1.30676" stroke-miterlimit="10"/>
<path d="M1.55469 1512.54C90.4464 1500.82 199.782 1431.6 287.794 1447.25C360.034 1460.14 385.534 1549.38 452.471 1571.93C528.585 1597.56 538.45 1514.55 585.959 1476C641.218 1431.21 695.597 1476.18 742.97 1512.54C798.338 1555.02 846.04 1584.49 913.004 1553.7C972.852 1526.12 1027.89 1469.34 1096.56 1474.38C1195.48 1481.63 1283.68 1554.9 1380.93 1571.84C1457.54 1585.18 1514.03 1523.63 1587.02 1512.57" stroke="white" stroke-opacity="0.07" stroke-width="1.30676" stroke-miterlimit="10"/>
<path d="M1.55469 1449.58C55.5492 1438.22 104.543 1418.29 155.432 1396.07C199.864 1376.65 270.401 1330.93 320.081 1345.5C403.065 1369.84 394.849 1506.57 467.803 1543.95C547.49 1584.69 540.538 1438.7 564.966 1392.27C608.134 1310.19 678.643 1408.48 712.002 1449.67C761.462 1510.92 806.636 1568.08 880.662 1514.78C937.844 1473.62 992.004 1382.19 1067.51 1388.88C1122.2 1393.73 1179.51 1434.5 1228.67 1459.8C1285.17 1488.85 1344.77 1528.75 1406.51 1544.01C1490.87 1564.94 1514.23 1470.36 1587.04 1449.58" stroke="white" stroke-opacity="0.07" stroke-width="1.30676" stroke-miterlimit="10"/>
<path d="M1.55469 1386.63C57.1979 1374.81 106.439 1352.87 158.18 1328.35C202.145 1307.36 275.044 1257.09 325.522 1272.71C411.748 1299.33 395.948 1448.59 471.156 1489.33C553.865 1534.3 538.944 1367.56 559.883 1321.66C601.402 1230.59 675.511 1344.42 705.16 1386.21C752.23 1452.49 796.579 1516.94 873.051 1458.54C930.123 1414.95 985.711 1315.61 1062.65 1322.17C1119.15 1327 1178.66 1371.88 1228.81 1399.19C1286.93 1430.81 1348.64 1474.55 1412.91 1491.16C1503.04 1514.48 1511.64 1408 1587.21 1386.69" stroke="white" stroke-opacity="0.07" stroke-width="1.30676" stroke-miterlimit="10"/>
<path d="M1.55469 1323.68C49.7513 1314.42 91.573 1296.7 136.198 1275.51C178.789 1255.12 233.085 1219.24 281.364 1229.46C363.799 1246.88 383.446 1367.84 458.763 1398.03C541.198 1431 542.517 1304.4 576.919 1254.31C629.128 1178.26 691.86 1270.74 726.648 1316.97C777.757 1384.9 816.171 1428.81 897.617 1391.04C963.097 1360.64 1033.63 1292.35 1107.91 1299.22C1211.53 1308.78 1299.32 1404.14 1400.25 1427.1C1487.68 1447.01 1511.26 1344.01 1587.1 1323.74" stroke="white" stroke-opacity="0.07" stroke-width="1.30676" stroke-miterlimit="10"/>
<path d="M1.55469 1260.72C75.7456 1250.44 141.253 1189.79 216.379 1194.77C299.225 1200.2 358.935 1279.07 438.952 1294.45C527.926 1311.53 539.631 1227.54 600.468 1183.26C668.202 1133.98 713.128 1189.55 758.302 1244.56C813.259 1311.74 852.003 1334.05 935.069 1323.77C1013.66 1314.05 1094.44 1288.21 1173.99 1295.08C1247.83 1301.46 1310.42 1354.19 1383.35 1364.03C1468.53 1375.6 1509.47 1279.19 1587.02 1260.69" stroke="white" stroke-opacity="0.07" stroke-width="1.30676" stroke-miterlimit="10"/>
<path d="M1.55469 1197.77C60.9349 1192.08 107.565 1153.53 167.88 1153.26C255.425 1152.84 338.244 1194.75 425.103 1200.53C509.598 1206.14 548.342 1150.77 618.906 1115.09C690.734 1078.76 732.858 1119.26 781.934 1174.6C803.641 1199.09 828.839 1231.71 859.037 1244.6C887.697 1256.83 932.871 1253.92 962.355 1256.26C1049.46 1263.19 1136.48 1270.68 1223.67 1275.96C1273.32 1278.95 1320.45 1297.96 1369.94 1300.18C1457.18 1304.1 1505.65 1215.91 1587.02 1197.74" stroke="white" stroke-opacity="0.07" stroke-width="1.30676" stroke-miterlimit="10"/>
<path d="M1.55469 1134.81C57.9123 1128.55 107.62 1099.62 164.637 1099.47C249.82 1099.2 331.842 1134.9 416.584 1140.21C498.771 1145.37 550.238 1092.54 621.708 1059C690.651 1026.65 733.929 1062 787.951 1108.34C811.802 1128.73 839.335 1155.62 868.599 1166.8C900.474 1178.94 937.817 1174.71 970.9 1180.35C1056.22 1194.95 1138.02 1222.08 1225.02 1224C1271.48 1225.02 1317.34 1220.13 1363.78 1220.55C1447.43 1221.24 1507.36 1154.33 1587.04 1134.81" stroke="white" stroke-opacity="0.07" stroke-width="1.30676" stroke-miterlimit="10"/>
<path d="M1.55469 1071.87C59.9182 1070.25 119.408 1061.08 177.69 1064.55C249.133 1068.81 314.063 1105.53 384.902 1112.52C470.249 1121 539.164 1060.54 615.416 1028.58C679.495 1001.6 739.068 1018 803.916 1032.69C865.385 1046.6 935.619 1044.41 992.306 1074.33C1056.99 1108.5 1122.58 1188.45 1199.44 1180C1259.89 1173.37 1290.11 1105.05 1347.38 1090.81C1420.53 1072.83 1512.25 1075.97 1587.07 1071.87" stroke="white" stroke-opacity="0.07" stroke-width="1.30676" stroke-miterlimit="10"/>
<path d="M1.55469 1008.91C65.249 1013.71 129.713 1025.79 192.94 1035.17C248.61 1043.41 292.658 1082.44 347.312 1091.89C434.555 1106.88 527.596 1034.75 607.228 1004.95C675.731 979.231 752.367 973.895 823.041 954.679C889.235 936.692 964.938 896.252 1017.06 961.034C1054.32 1007.32 1099.06 1154.51 1168.72 1139.4C1246.23 1122.58 1259.04 983.188 1327.54 948.953C1392.47 916.517 1521.1 997.068 1587.04 1008.91" stroke="white" stroke-opacity="0.07" stroke-width="1.30676" stroke-miterlimit="10"/>
<path d="M1.55469 945.951C69.4806 953.145 135.236 978.776 202.42 991.397C250.919 1000.54 278.507 1042.15 324.89 1053.15C411.116 1073.63 523.996 992.326 603.82 964.087C639.542 951.407 675.868 949.458 712.057 939.655C754.565 928.114 794.848 903.682 833.95 883.117C895.501 850.891 988.322 778.195 1033.08 866.899C1058.53 917.322 1077.71 1108.28 1151.24 1090.41C1191.63 1080.58 1215.48 1011.57 1233.12 975.929C1252.85 936.058 1275.85 862.253 1316.63 838.75C1360.16 813.689 1408.87 853.739 1445.28 875.833C1493.07 904.701 1533.21 932.581 1587.07 945.861" stroke="white" stroke-opacity="0.07" stroke-width="1.30676" stroke-miterlimit="10"/>
<path d="M1.55469 883.002C68.8761 890.047 125.536 927.729 192.72 937.772C242.565 945.236 288.893 969.159 338.656 975.724C423.206 986.905 512.181 931.087 591.785 906.235C671.884 881.264 743.134 868.973 821.062 832.07C884.262 802.092 975.379 734.942 1024.1 817.081C1052.81 865.465 1078.59 1034.39 1149.73 1018.59C1190.23 1009.6 1218.42 941.999 1238.78 907.224C1261.92 867.624 1289.54 796.516 1331.69 773.643C1375.65 749.661 1419.12 787.403 1454.43 811.625C1499.63 842.622 1533.93 870.532 1587.04 883.002" stroke="white" stroke-opacity="0.07" stroke-width="1.30676" stroke-miterlimit="10"/>
<path d="M1.55469 820.044C66.3206 832.035 101.822 891.991 168.567 895.948C236.135 899.845 305.957 880.479 373.444 876.522C511.246 868.428 654.847 847.594 786.055 801.308C850.904 778.435 942.021 726.154 1000.38 786.319C1042.29 829.667 1077.65 944.872 1148.6 930.812C1245.65 911.566 1281.02 745.999 1369.75 707.268C1414.48 687.722 1446.24 718.539 1478.48 747.258C1515.6 780.593 1538.98 807.124 1587.04 820.044" stroke="white" stroke-opacity="0.07" stroke-width="1.30676" stroke-miterlimit="10"/>
<path d="M1.55469 757.091C65.304 774.868 75.7456 852.39 144.441 854.099C233.03 856.317 321.18 790.756 408.231 777.266C457.032 769.711 494.1 784.37 540.428 794.803C610.772 810.631 682.655 787.098 751.076 770.521C821.475 753.463 907.344 719.229 976.396 755.532C1031.82 784.76 1078.7 856.617 1147.2 843.067C1252.83 822.083 1307.37 675.611 1407.5 640.867C1489.93 612.328 1518.02 735.417 1587.1 756.881" stroke="white" stroke-opacity="0.07" stroke-width="1.30676" stroke-miterlimit="10"/>
<path d="M1.55469 694.138C70.0851 696.086 61.3746 797.232 135.043 799.3C231.849 801.998 327.39 716.981 422.025 700.193C480.801 689.761 486.379 711.195 529.19 735.957C581.645 766.384 685.458 729.392 738.023 719.769C813.258 705.979 891.379 681.967 966.092 708.647C1022.37 728.792 1084.6 779.994 1146.07 769.022C1252.14 750.136 1321.69 613.707 1422.61 578.873C1506.64 549.855 1518.35 671.655 1587.04 694.138" stroke="white" stroke-opacity="0.07" stroke-width="1.30676" stroke-miterlimit="10"/>
<path d="M1.55469 631.188C63.7926 646.176 91.7929 711.138 157.163 712.907C239.598 715.125 323.543 669.889 405.263 660.026C453.24 654.21 499.843 662.334 547.6 666.981C609.646 672.977 672.406 667.281 734.644 665.662C866.017 662.304 999.835 662.424 1130.33 645.217C1225.24 632.686 1310.09 562.958 1403.27 541.644C1483.53 523.268 1515.6 612.182 1587.04 631.188" stroke="white" stroke-opacity="0.07" stroke-width="1.30676" stroke-miterlimit="10"/>
<path d="M1.55469 568.241C68.1891 573.877 127.432 604.814 194.231 610.84C255.617 616.386 316.701 630.475 378.142 634.312C447.937 638.689 509.296 611.529 576.425 596.63C635.008 583.65 675.346 592.703 728.708 618.514C787.402 646.933 828.729 658.354 886.763 618.934C954.111 573.158 1017.83 478.997 1102.3 478.428C1190.81 477.828 1281.32 509.365 1369.33 518.118C1445.34 525.673 1511.94 561.166 1587.02 568.301" stroke="white" stroke-opacity="0.07" stroke-width="1.30676" stroke-miterlimit="10"/>
<path d="M1.55469 505.279C71.5964 504.74 157.191 499.793 225.529 514.842C280.76 526.983 303.374 585.59 355.033 602.977C428.702 627.799 532.487 551.685 601.237 526.803C665.729 503.451 697.026 500.633 723.79 568.622C753.686 644.616 792.046 632.085 844.831 574.618C890.005 525.334 926.524 466.488 968.648 414.237C994.752 381.831 1032.26 323.944 1079.14 328.32C1121.92 332.307 1169.21 377.574 1204.82 402.485C1247.25 432.163 1292.28 472.184 1341.17 489.421C1410 513.583 1514.97 506.239 1586.93 505.579" stroke="white" stroke-opacity="0.07" stroke-width="1.30676" stroke-miterlimit="10"/>
<path d="M1.55469 442.334C74.4542 441.434 165.819 432.231 236.658 448.929C291.229 461.819 305.353 522.374 355.5 540.841C426.037 566.891 538.67 490.178 605.716 466.706C666.635 445.421 702.219 437.028 724.449 505.677C749.592 583.259 792.54 562.634 841.066 507.955C887.394 455.794 924.517 393.74 967.466 338.521C993.103 305.545 1031.71 244.09 1079.27 247.748C1124.42 251.255 1168.66 304.706 1201.55 335.133C1240.02 370.687 1282.86 422.818 1332.81 440.565C1405.96 466.586 1511.09 441.464 1587.04 442.394" stroke="white" stroke-opacity="0.07" stroke-width="1.30676" stroke-miterlimit="10"/>
<path d="M1.55469 379.373C136.335 387.317 269.302 423.141 404.659 431.864C508.141 438.519 636.135 446.853 737.144 420.023C791.936 405.514 834.334 411.869 883.328 373.797C944.054 326.612 1032.81 187.515 1113.9 201.365C1205.56 216.863 1237.27 374.007 1320.28 409.92C1392.83 441.307 1512.08 383.9 1587.07 379.343" stroke="white" stroke-opacity="0.07" stroke-width="1.30676" stroke-miterlimit="10"/>
<path d="M1.55469 316.42C99.0196 332.039 212.889 407.912 310.326 395.591C373.911 387.527 410.374 323.375 470.826 308.356C545.017 289.89 548.287 363.155 592.609 403.416C654.655 459.834 714.282 373.438 754.373 326.343C779.57 296.665 809.549 255.475 844.007 237.279C873.546 221.69 908.937 226.157 940.345 217.613C1002.42 200.736 1096.53 135.294 1160.03 161.165C1242.96 194.98 1229.58 347.357 1304.46 390.465C1344.25 413.368 1399.7 380.363 1436.93 365.704C1487.3 345.798 1533.79 325.683 1586.96 316.42" stroke="white" stroke-opacity="0.07" stroke-width="1.30676" stroke-miterlimit="10"/>
<path d="M1.55469 253.473C58.4619 264.984 110.396 285.759 164.115 308.422C213.851 329.407 283.425 372.784 338.711 361.423C420.047 344.695 440.71 230.36 515.56 203.2C604.452 170.914 568.456 315.677 586.234 366.489C624.704 476.268 744.453 273.558 765.941 242.891C796.469 199.153 836.67 127.866 881.542 97.858C914.735 75.7044 942.268 85.3573 978.787 89.3143C1015.94 93.3613 1052.98 97.5582 1090.24 101.635C1115.63 104.423 1168.17 98.8173 1191.58 113.297C1267.39 160.212 1223.07 308.722 1292.78 357.046C1332.32 384.476 1394.2 338.7 1429.02 321.073C1482.08 293.943 1529.34 266.513 1587.04 253.473" stroke="white" stroke-opacity="0.07" stroke-width="1.30676" stroke-miterlimit="10"/>
<path d="M1.55469 190.511C56.7857 201.333 107.73 220.489 160.241 241.323C209.702 261.019 276.391 300.56 330.605 290.217C410.292 275.019 436.643 167.308 510.669 142.127C601.347 111.22 563.318 245.4 589.202 294.564C638.827 388.814 738.683 220.279 769.266 179.539C800.426 138.05 840.27 73.0581 884.235 44.6392C916.631 23.6547 945.099 30.8194 980.655 35.6458C1016.82 40.5022 1052.7 47.637 1088.78 53.033C1118.38 57.5896 1161.21 53.033 1189.35 65.0241C1263.54 97.1003 1232.3 241.503 1296.1 284.821C1335.84 311.801 1395.36 269.832 1431.24 252.715C1483.45 227.863 1530.71 202.712 1586.93 190.481" stroke="white" stroke-opacity="0.07" stroke-width="1.30676" stroke-miterlimit="10"/>
<path d="M1.55469 127.564C95.7772 139.226 200.194 200.8 294.362 190.038C365.502 181.944 411.061 112.485 479.344 97.1068C559.553 78.9103 554.14 150.917 601.045 193.306C662.678 248.974 734.231 163.028 778.719 120.879C842.962 59.9943 888.631 23.3315 975.242 31.0957C1008.93 34.0935 1042.48 38.6202 1076.11 42.1276C1104.83 45.1253 1145.41 39.1298 1173.03 49.1424C1237.77 72.585 1249.97 162.339 1311.49 187.19C1385.49 217.168 1512.3 137.547 1587.02 127.684" stroke="white" stroke-opacity="0.07" stroke-width="1.30676" stroke-miterlimit="10"/>
<path d="M1.55469 64.607C86.1324 66.2857 169.583 88.4093 254.189 86.0111C319.257 84.1525 379.956 58.4915 444.53 53.4852C509.103 48.4789 553.59 74.6495 613.795 88.1095C676.802 102.229 730.577 86.8205 789.27 62.4486C901.106 15.953 1036.71 27.3446 1155 37.8967C1215.95 43.3527 1268.02 80.4652 1328.39 86.0411C1414.29 93.9552 1501.34 66.3457 1587.13 64.607" stroke="white" stroke-opacity="0.07" stroke-width="1.30676" stroke-miterlimit="10"/>
<path d="M1526.1 1.65442C1525.25 87.5708 1516.65 173.097 1516.87 259.014C1517.04 322.866 1525.53 386.03 1526.19 449.822C1527.37 568.804 1548.88 678.403 1532.18 797.925C1513.11 934.294 1528.88 1071.71 1531.02 1208.98C1532.15 1280.48 1541.27 1351.4 1541.38 1422.93C1541.38 1495.39 1527.26 1566.05 1526.02 1638.44" stroke="white" stroke-opacity="0.07" stroke-width="1.30676" stroke-miterlimit="10"/>
<path d="M1465.06 1.65442C1459.57 100.911 1434.32 202.506 1437.15 302.032C1438.63 353.714 1458.55 400.419 1464.62 451.291C1471 505.761 1491.61 537.448 1507.46 587.481C1525.65 644.798 1503.09 699.418 1483.83 752.358C1426.9 908.423 1470.75 1084.33 1481.36 1247.89C1486.08 1320.74 1512.6 1391.78 1511.75 1465.11C1510.9 1527.52 1472.46 1576.81 1465.09 1638.44" stroke="white" stroke-opacity="0.07" stroke-width="1.30676" stroke-miterlimit="10"/>
<path d="M1404.07 1.65442C1394.92 109.245 1350.62 232.483 1359.3 340.853C1362.9 385.67 1392.44 410.731 1402.99 452.46C1410.99 483.997 1404.37 494.429 1426.76 518.022C1440.06 532.022 1459.98 535.439 1471.5 552.317C1505.76 602.529 1457.98 668.93 1434.02 711.199C1383.57 800.083 1383.27 846.099 1394.94 951.021C1407.25 1061.49 1418.22 1172.29 1430.25 1282.67C1438.17 1355.12 1483.01 1429.32 1478.81 1502.88C1475.18 1566.62 1406.07 1576.06 1404.15 1638.41" stroke="white" stroke-opacity="0.07" stroke-width="1.30676" stroke-miterlimit="10"/>
<path d="M1343.11 1.65442C1336.62 73.1215 1323.63 142.55 1312.22 213.328C1305.44 255.297 1291.61 303.261 1295.74 346.669C1299.86 390.077 1329.29 408.843 1340.33 448.593C1349.59 481.569 1341.38 488.584 1366.13 512.446C1380.84 526.566 1403.97 529.114 1416.61 546.651C1452.61 596.654 1400.56 663.564 1375.59 704.514C1320.77 794.447 1319.28 839.893 1333.19 948.533C1347.83 1063.11 1359.95 1177.86 1373.5 1292.44C1381.74 1363.04 1426.53 1438.13 1422.19 1509.78C1418.29 1574.29 1345.83 1575.73 1343.25 1638.68" stroke="white" stroke-opacity="0.07" stroke-width="1.30676" stroke-miterlimit="10"/>
<path d="M1282.04 1.65442C1275 132.687 1252.86 264.5 1261.24 396.192C1265.91 469.608 1308.88 518.502 1333.04 584.273C1357 649.505 1330.29 705.173 1306.55 765.429C1271.62 853.803 1264.59 904.616 1281.16 1000.63C1297.48 1095.18 1326.17 1189.91 1326.61 1286.83C1326.88 1345.08 1318.72 1404.17 1316.36 1462.35C1313.88 1522.94 1289.13 1578.43 1282.18 1638.41" stroke="white" stroke-opacity="0.07" stroke-width="1.30676" stroke-miterlimit="10"/>
<path d="M1221.19 1.65442C1224.41 57.4131 1244.96 123.934 1238.26 179.842C1231.42 236.8 1184.62 263.78 1174.73 317.74C1156.48 417.566 1218.69 539.276 1238.67 635.865C1254.5 712.578 1245.92 780.687 1233.75 856.891C1221.19 935.403 1210.83 999.165 1234.08 1076.06C1250.32 1129.87 1303.93 1219.62 1285 1277.54C1267.03 1332.49 1198.91 1330.39 1188.82 1392.14C1176.95 1465.26 1214.71 1565.03 1221 1638.41" stroke="white" stroke-opacity="0.07" stroke-width="1.30676" stroke-miterlimit="10"/>
<path d="M1160.23 1.65442C1157.98 49.6189 1209.28 56.0341 1205.93 106.007C1201.01 178.733 1111.95 194.412 1094.15 260.063C1081.45 306.798 1103.99 390.976 1111.1 433.574C1124.59 514.514 1140.97 595.245 1152.92 676.604C1165.04 759.193 1164.44 841.093 1163.92 924.431C1163.59 990.802 1151.33 1073.51 1183.15 1133.26C1201.73 1168.21 1262.23 1225.35 1239.26 1271.36C1209.23 1331.53 1099.45 1266.09 1078.57 1340.13C1069.25 1373.11 1106.65 1456.3 1116.27 1483.55C1134.35 1534.9 1150.62 1584.15 1160.07 1638.5" stroke="white" stroke-opacity="0.07" stroke-width="1.30676" stroke-miterlimit="10"/>
<path d="M1099.23 1.65442C1093.02 49.6189 1147.29 42.4542 1145.95 94.016C1143.91 171.479 1042.24 204.634 1025.04 276.401C1013.86 323.346 1035.7 402.308 1043.62 444.996C1058.07 523.268 1076.1 600.88 1088.65 679.692C1101.38 759.313 1099.64 840.433 1104.32 920.983C1108.11 987.474 1100.11 1064.34 1126.52 1125.88C1141.91 1161.79 1193.67 1226.07 1174 1268.22C1144.98 1330.39 1031.86 1270.16 1010.97 1344.93C1001.03 1380.51 1039.93 1457.65 1051.61 1486.03C1072.41 1536.58 1090.3 1583.25 1099.21 1638.35" stroke="white" stroke-opacity="0.07" stroke-width="1.30676" stroke-miterlimit="10"/>
<path d="M1038.21 1.65442C1030.96 40.6255 1072.56 39.5164 1071.6 82.7444C1069.24 191.684 958.939 273.973 941.353 379.524C925.086 477.372 997.903 585.202 1024.04 675.795C1041.62 736.89 1041.32 801.941 1055.36 864.415C1070.01 929.587 1072.7 989.962 1075.42 1056.84C1077.65 1111.91 1099.19 1208.5 1080.2 1259.46C1055.85 1324.75 956.796 1325.11 947.206 1399.91C942.315 1438.19 972.596 1485.88 989.193 1515.62C1011.89 1556.27 1029.2 1590.96 1038.21 1638.53" stroke="white" stroke-opacity="0.07" stroke-width="1.30676" stroke-miterlimit="10"/>
<path d="M977.223 1.65442C970.161 29.3539 995.221 36.4586 994.589 69.5242C991.676 221.302 870.058 352.694 853.104 502.164C843.789 584.363 920.81 614.7 958.208 673.187C982.526 711.169 984.394 756.645 1008.77 796.396C1047.43 859.349 1038.99 898.32 1025.5 974.854C1009.37 1065.93 996.924 1159.13 980.108 1249.6C965.572 1327.75 881.187 1383.36 882.863 1465.8C884.292 1536.88 960.928 1571.26 977.223 1638.56" stroke="white" stroke-opacity="0.07" stroke-width="1.30676" stroke-miterlimit="10"/>
<path d="M916.261 1.65442C913.847 11.8543 914.681 22.6459 918.624 32.2617C919.646 29.7791 921.092 27.5309 922.883 25.6367C929.643 57.2033 919.915 92.4871 912.798 123.005C889.772 221.931 851.082 318.64 820.994 415.108C799.973 482.468 732.762 604.208 813.273 643.359C837.261 655.05 873.505 649.115 895.295 667.341C914.53 683.379 909.803 698.968 919.421 721.301C934.396 755.956 964.402 749.75 984.022 776.85C1024 832.159 960.555 969.098 944.426 1025.07C919.833 1110.41 910.38 1198.13 887.793 1282.64C869.493 1351.07 804.095 1446.07 822.917 1519.46C836.904 1573.9 917.717 1577.11 916.343 1638.89" stroke="white" stroke-opacity="0.07" stroke-width="1.30676" stroke-miterlimit="10"/>
<path d="M855.324 1.44611C865.216 197.861 753.875 366.755 735.244 556.875C727.496 635.926 783.056 625.644 821.938 670.79C839.524 691.265 832.792 718.065 845.816 739.469C855.186 754.818 868.981 759.105 882.06 769.117C941.853 814.894 922.673 858.661 903.548 935.134C879.395 1031.75 851.724 1122.83 837.298 1221.75C824.988 1306.2 756.018 1389.81 760.634 1476.56C764.344 1546.35 838.452 1572.49 855.269 1638.62" stroke="white" stroke-opacity="0.07" stroke-width="1.30676" stroke-miterlimit="10"/>
<path d="M794.304 1.65442C783.972 173.727 734.044 342.922 723.658 514.574C720.305 569.824 731.159 623.334 735.776 677.983C740.859 738.329 740.117 764.709 786.061 801.312C841.896 845.799 837.692 883.451 822.661 955.608C807.851 1026.72 793.809 1094.7 783.23 1166.53C771.112 1248.76 704.478 1317.74 703.544 1402.34C702.609 1486.93 778.367 1556.57 794.222 1638.44" stroke="white" stroke-opacity="0.07" stroke-width="1.30676" stroke-miterlimit="10"/>
<path d="M733.275 1.86786C722.284 111.826 673.4 234.106 680.132 345.233C682.88 389.81 708.572 428.242 712.062 472.249C717.942 546.534 670.68 617.162 649.604 685.092C628.061 755 641.8 787.856 690.052 833.542C737.122 878.209 748.993 908.096 741.738 976.116C737.04 1020.15 736.243 1068.15 729.153 1111.26C716.184 1188.87 650.264 1247.89 646.719 1328.15C642.13 1431.87 717.86 1536.52 733.33 1638.45" stroke="white" stroke-opacity="0.07" stroke-width="1.30676" stroke-miterlimit="10"/>
<path d="M672.303 1.65442C663.564 82.8643 647.05 161.916 631.58 241.866C623.336 285.094 601.574 344.63 609.927 389.447C619.27 439.45 654.799 413.579 670.379 453.809C696.181 520.36 600.42 631.548 576.953 689.465C548.349 760.302 569.452 796.216 615.945 845.589C661.806 894.303 670.901 918.945 671.643 986.905C672.083 1021.08 676.424 1057.59 670.489 1091.2C657.162 1166.65 591.544 1223.1 587.697 1301.31C585.224 1351.82 612.263 1417.18 626.771 1462.59C645.429 1520.87 662.823 1577.2 672.22 1638.32" stroke="white" stroke-opacity="0.07" stroke-width="1.30676" stroke-miterlimit="10"/>
<path d="M611.273 1.65442C603.415 113.831 582.229 229.096 582.916 341.752C583.163 387.019 591.159 432.525 591.517 477.822C592.286 551.837 555.328 613.861 535.489 682.63C517.188 746.183 533.538 793.368 555.658 852.124C576.074 906.354 576.651 957.466 592.259 1010.68C602.975 1047.13 614.241 1071.89 609.707 1113.02C600.969 1193.39 556.839 1268.01 554.751 1349.43C552.195 1445.03 599.623 1543.83 611.383 1638.2" stroke="white" stroke-opacity="0.07" stroke-width="1.30676" stroke-miterlimit="10"/>
<path d="M550.43 1.65442C556.75 85.2625 585.492 174.686 581.15 258.864C576.397 350.566 513.664 426.38 501.958 516.343C495.281 567.485 503.277 622.555 504.981 674.026C507.124 737.999 501.574 800.323 495.721 863.936C490.94 915.947 467.693 1006.9 500.365 1052.8C527.843 1091.29 549.825 1095.93 550.512 1153.4C551.474 1247.05 542.544 1340.67 542.461 1434.35C542.461 1502.64 549.908 1570.39 550.402 1638.68" stroke="white" stroke-opacity="0.07" stroke-width="1.30676" stroke-miterlimit="10"/>
<path d="M489.49 1.65442C504.631 65.8069 570.331 121.566 569.617 189.555C568.957 249.811 521.887 317.141 496.168 369.152C470.75 420.594 426.895 489.843 416.481 549.199C405.297 613.231 445.306 620.456 470.146 666.112C501.911 724.449 454.071 818.159 435.578 873.708C417.608 927.668 358.64 1039.79 413.239 1087.63C454.456 1123.81 484.682 1118 490.645 1186.41C499.547 1289.8 525.872 1401.02 522.107 1504.89C520.321 1553.69 490.809 1590.3 489.436 1638.77" stroke="white" stroke-opacity="0.07" stroke-width="1.30676" stroke-miterlimit="10"/>
<path d="M428.43 1.65442C443.516 68.6848 520.674 110.474 519.493 181.521C518.476 245.044 468.273 312.884 439.806 366.394C412.52 417.836 362.263 491.582 352.206 552.796C341.324 619.197 385.564 622.195 412.438 667.161C446.95 724.929 394.165 822.057 374.408 876.376C354.651 930.696 291.617 1043.23 348.524 1092.49C390.648 1128.94 420.709 1122.46 426.012 1191.62C434.063 1296.73 477.176 1405.03 471.681 1510.77C468.933 1561.07 425.435 1589.4 428.403 1638.68" stroke="white" stroke-opacity="0.07" stroke-width="1.30676" stroke-miterlimit="10"/>
<path d="M367.445 1.65442C383.712 79.3569 466.723 151.214 463.316 232.663C458.7 343.911 335.515 416.037 314.769 522.459C304.3 576.239 324.029 635.415 330.102 688.715C337.768 756.106 323.727 817.08 309.823 882.402C298.145 937.261 267.04 1022.19 299.409 1074.95C306.773 1086.94 318.973 1093.9 326.667 1105.35C342.605 1129.09 340.626 1150.85 344.336 1178.13C356.838 1269.87 425.506 1348.08 426.578 1442.09C427.457 1512.54 376.705 1569.49 367.417 1638.44" stroke="white" stroke-opacity="0.07" stroke-width="1.30676" stroke-miterlimit="10"/>
<path d="M306.577 1.65442C319.327 68.7747 347.657 122.345 373.706 184.009C388.379 218.814 412.478 261.052 409.07 301.492C402.448 379.794 308.473 411.751 285.419 482.948C275.197 514.365 275.719 561.909 268.767 594.765C260.194 635.205 249.532 675.165 242.031 715.905C231.04 775.501 237.415 830.96 244.174 890.496C250.162 943.853 253.318 997.543 253.627 1051.3C253.929 1084.75 247.417 1127.05 256.374 1158.62C278.027 1235.45 377.498 1266.39 387.225 1349.22C392.144 1391.33 363.814 1451.98 350.075 1488.4C331.307 1538.17 315.123 1584.78 306.742 1638.29" stroke="white" stroke-opacity="0.07" stroke-width="1.30676" stroke-miterlimit="10"/>
<path d="M245.504 1.65442C259.243 77.2584 287.875 143.899 315.463 214.497C329.917 251.519 358.961 305.449 352.311 347.928C342.529 410.641 269.437 402.547 245.641 455.039C231.298 486.665 227.588 547.37 215.965 581.395C198.297 633.077 176.671 683.319 161.009 735.99C141.774 800.802 146.665 840.703 179.666 895.982C207.145 941.818 223.631 981.149 203.435 1035.38C190.41 1070.6 161.861 1105.14 176.094 1146.69C201.484 1220.73 323.927 1203.79 340.331 1286.95C348.904 1330.36 308.978 1418.85 296.531 1454.83C275.565 1515.56 255.973 1573.99 245.422 1638.17" stroke="white" stroke-opacity="0.07" stroke-width="1.30676" stroke-miterlimit="10"/>
<path d="M184.559 1.65442C198.023 74.7403 224.32 140.122 247.759 209.82C260.426 247.412 287.3 298.884 281.557 340.853C273.313 400.389 207.97 401.738 186.867 452.46C172.826 486.275 170.051 541.674 158.29 577.468C141.803 628.22 121.195 677.714 106.576 729.245C88.4131 793.278 93.0295 834.168 124.657 889.327C151.888 936.902 165.434 975.783 147.464 1031.24C135.153 1069.22 106.246 1106.94 120.947 1150.16C145.018 1221.75 257.101 1213.66 271.472 1293.7C279.194 1336.51 242.895 1421.97 231.327 1458.58C212.477 1518.17 194.753 1576.12 184.614 1638.44" stroke="white" stroke-opacity="0.07" stroke-width="1.30676" stroke-miterlimit="10"/>
<path d="M123.542 1.65442C134.863 98.2429 189.489 203.975 183.994 302.032C180.696 360.099 136.539 396.372 124.723 451.291C107.33 532.231 91.0625 616.469 74.6031 698.488C62.6227 758.444 68.7503 806.408 86.2264 863.366C103.235 918.735 110.572 965.29 100.57 1023.48C92.8211 1068.44 73.0918 1119.41 83.5335 1165.57C98.5366 1232.75 171.244 1263.21 177.756 1334.74C186.549 1431.66 133.571 1542.24 123.514 1638.53" stroke="white" stroke-opacity="0.07" stroke-width="1.30676" stroke-miterlimit="10"/>
<path d="M62.4659 1.65442C64.3069 87.9905 82.9645 172.528 82.4699 259.014C82.1127 323.766 63.8947 385.37 62.301 449.823C59.0861 579.536 37.3509 704.124 50.3205 834.258C62.0262 951.621 43.1487 1065.66 48.4245 1182.54C51.4746 1250.35 79.7221 1311.74 80.519 1380.12C81.5082 1466.7 64.0321 1552.02 62.4659 1638.56" stroke="white" stroke-opacity="0.07" stroke-width="1.30676" stroke-miterlimit="10"/>
</svg>
