<svg width="158" height="158" viewBox="0 0 158 158" fill="none" xmlns="http://www.w3.org/2000/svg">
<path d="M68.958 8.78193C74.9509 4.9592 82.6169 4.9592 88.6098 8.78193C92.7732 11.4377 97.6944 12.6506 102.615 12.2339C109.698 11.6341 116.486 15.1967 120.016 21.3666C122.468 25.6529 126.262 29.0139 130.813 30.9317C137.363 33.6922 141.718 40.0012 141.976 47.1048C142.156 52.0398 143.953 56.7789 147.091 60.5919C151.608 66.0803 152.532 73.6904 149.46 80.1004C147.325 84.5535 146.714 89.585 147.721 94.4196C149.17 101.379 146.452 108.546 140.753 112.794C136.793 115.745 133.914 119.917 132.559 124.665C130.608 131.501 124.87 136.584 117.849 137.697C112.972 138.47 108.484 140.825 105.077 144.4C100.173 149.546 92.7297 151.381 85.9961 149.103C81.3182 147.521 76.2497 147.521 71.5717 149.103C64.8381 151.381 57.3949 149.546 52.491 144.4C49.0841 140.825 44.5962 138.47 39.7188 137.697C32.6981 136.584 26.96 131.501 25.0092 124.665C23.654 119.917 20.7747 115.745 16.8152 112.794C11.1158 108.546 8.39741 101.379 9.84661 94.4196C10.8534 89.585 10.2425 84.5535 8.10793 80.1004C5.03545 73.6904 5.95949 66.0803 10.4767 60.5919C13.6149 56.7789 15.4122 52.0398 15.5917 47.1048C15.85 40.0012 20.2048 33.6922 26.7552 30.9317C31.3059 29.0139 35.0997 25.6529 37.552 21.3666C41.0819 15.1967 47.8698 11.6341 54.9528 12.2339C59.8735 12.6506 64.7946 11.4377 68.958 8.78193Z" fill="#8D83FF" stroke="#19154A" stroke-width="4.2394"/>
<g clip-path="url(#clip0_28_1970)">
<path d="M70.5588 95.6771C75.7615 93.0758 77.0683 89.1676 77.0683 82.6582V77.4555H90.0873V69.6392H77.0683V59.2216C77.0683 51.5886 80.9886 47.5095 87.4859 47.5095C90.6368 47.5095 92.4688 49.7811 95.3022 51.4176V42.3068C92.2611 41.1343 91.1742 41 87.4859 41C82.0145 41 76.6775 42.661 73.2335 45.9829C69.8016 49.2926 69.2643 54.0556 69.2643 59.2338V69.6514H58.8467V77.4677H69.2643V85.2839C69.2643 90.4866 64.0616 95.7015 58.8467 95.7015L58.8833 103.554H100.493L100.505 95.7015H70.5588V95.6771Z" fill="black"/>
</g>
<defs>
<clipPath id="clip0_28_1970">
<rect width="62.53" height="62.53" fill="white" transform="translate(47 41)"/>
</clipPath>
</defs>
</svg>
