<svg width="43" height="63" viewBox="0 0 43 63" fill="none" xmlns="http://www.w3.org/2000/svg">
<path d="M12.5588 54.6771C17.7615 52.0758 19.0683 48.1676 19.0683 41.6582V36.4555H32.0873V28.6392H19.0683V18.2216C19.0683 10.5886 22.9886 6.50947 29.4859 6.50947C32.6368 6.50947 34.4688 8.78107 37.3022 10.4176V1.30678C34.2611 0.134342 33.1742 0 29.4859 0C24.0145 0 18.6775 1.66095 15.2335 4.98286C11.8016 8.29255 11.2643 13.0556 11.2643 18.2338V28.6514H0.84668V36.4677H11.2643V44.2839C11.2643 49.4866 6.06158 54.7015 0.84668 54.7015L0.883319 62.5544H42.4926L42.5048 54.7015H12.5588V54.6771Z" fill="black"/>
</svg>
