<svg width="150" height="150" viewBox="0 0 150 150" fill="none" xmlns="http://www.w3.org/2000/svg">
<path d="M64.958 5.78193C70.9509 1.9592 78.6169 1.9592 84.6098 5.78193C88.7732 8.43766 93.6944 9.65062 98.6151 9.23391C105.698 8.6341 112.486 12.1967 116.016 18.3666C118.468 22.6529 122.262 26.0139 126.813 27.9317C133.363 30.6922 137.718 37.0012 137.976 44.1048C138.156 49.0398 139.953 53.7789 143.091 57.5919C147.608 63.0803 148.532 70.6904 145.46 77.1004C143.325 81.5535 142.714 86.585 143.721 91.4196C145.17 98.3786 142.452 105.546 136.753 109.794C132.793 112.745 129.914 116.917 128.559 121.665C126.608 128.501 120.87 133.584 113.849 134.697C108.972 135.47 104.484 137.825 101.077 141.4C96.173 146.546 88.7297 148.381 81.9961 146.103C77.3182 144.521 72.2497 144.521 67.5717 146.103C60.8381 148.381 53.3949 146.546 48.491 141.4C45.0841 137.825 40.5962 135.47 35.7188 134.697C28.6981 133.584 22.96 128.501 21.0092 121.665C19.654 116.917 16.7747 112.745 12.8152 109.794C7.11581 105.546 4.39741 98.3786 5.84661 91.4196C6.8534 86.585 6.24246 81.5535 4.10793 77.1004C1.03545 70.6904 1.95949 63.0803 6.4767 57.5919C9.61491 53.7789 11.4122 49.0398 11.5917 44.1048C11.85 37.0012 16.2048 30.6922 22.7552 27.9317C27.3059 26.0139 31.0997 22.6529 33.552 18.3666C37.0819 12.1967 43.8698 8.6341 50.9528 9.23391C55.8735 9.65062 60.7946 8.43766 64.958 5.78193Z" fill="#8D83FF" stroke="#19154A" stroke-width="4.2394"/>
</svg>
