<svg width="420" height="297" viewBox="0 0 420 297" fill="none" xmlns="http://www.w3.org/2000/svg">
<path d="M332.562 31.2165C362.41 12.1773 400.59 12.1773 430.438 31.2165L436.807 35.2793C453.638 46.0152 473.532 50.9187 493.424 49.2341L500.952 48.5966C536.229 45.6092 570.036 63.3527 587.617 94.0821L591.369 100.639C601.283 117.967 616.619 131.554 635.016 139.307L641.978 142.241C674.602 155.99 696.291 187.412 697.578 222.792L697.852 230.341C698.578 250.292 705.843 269.45 718.53 284.864L723.331 290.697C745.829 318.032 750.431 355.934 735.128 387.859L731.863 394.672C723.234 412.674 720.764 433.014 724.834 452.558L726.374 459.954C733.592 494.614 720.053 530.313 691.667 551.47L685.61 555.985C669.603 567.915 657.964 584.777 652.485 603.974L650.412 611.239C640.696 645.283 612.117 670.601 577.15 676.143L569.689 677.326C549.971 680.45 531.829 689.972 518.056 704.424L512.844 709.893C488.42 735.522 451.349 744.659 417.812 733.317L410.656 730.896C391.745 724.5 371.255 724.5 352.344 730.896L345.188 733.317C311.651 744.659 274.58 735.522 250.156 709.893L244.944 704.424C231.171 689.972 213.029 680.45 193.311 677.326L185.85 676.143C150.883 670.601 122.304 645.283 112.588 611.239L110.515 603.974C105.036 584.777 93.3969 567.915 77.3903 555.985L71.333 551.47C42.9468 530.313 29.4077 494.614 36.6255 459.954L38.1657 452.558C42.2357 433.014 39.766 412.674 31.137 394.672L27.8716 387.859C12.569 355.934 17.1712 318.032 39.6693 290.697L44.4702 284.864C57.1566 269.45 64.4223 250.292 65.1477 230.341L65.4223 222.792C66.7088 187.412 88.398 155.99 121.022 142.241L127.984 139.307C146.381 131.554 161.717 117.967 171.631 100.639L175.383 94.0821C192.963 63.3527 226.771 45.6092 262.048 48.5966L269.576 49.2341C289.468 50.9187 309.362 46.0152 326.193 35.2793L332.562 31.2165Z" fill="#8D83FF"/>
<path d="M438.66 270.399C438.643 284.803 442.549 298.941 449.961 311.298H449.155C448.265 311.328 447.381 311.46 446.521 311.691L442.394 312.201C412.561 316.126 385.539 327.665 366.259 344.504C364.058 346.466 362.015 348.429 360.069 350.391C359.358 348.875 358.326 347.532 357.044 346.453C355.762 345.375 354.261 344.587 352.645 344.145C351.028 343.703 349.335 343.616 347.681 343.892C346.028 344.167 344.454 344.798 343.069 345.74L316.931 363.069C315.884 363.72 314.666 364.043 313.434 363.996C312.202 363.949 311.012 363.534 310.018 362.805C309.024 362.077 308.271 361.067 307.857 359.908C307.443 358.748 307.386 357.491 307.694 356.298L316.125 326.076C316.602 324.386 316.689 322.61 316.379 320.882C316.069 319.154 315.37 317.518 314.335 316.099C313.3 314.68 311.956 313.514 310.403 312.689C308.851 311.864 307.132 311.402 305.375 311.337L273.931 309.983C272.676 309.933 271.466 309.501 270.465 308.744C269.463 307.987 268.717 306.943 268.328 305.75C267.938 304.558 267.924 303.275 268.286 302.074C268.648 300.873 269.37 299.812 270.354 299.032L294.94 279.545C296.318 278.455 297.432 277.068 298.198 275.488C298.964 273.908 299.361 272.175 299.361 270.419C299.361 268.663 298.964 266.931 298.198 265.35C297.432 263.77 296.318 262.383 294.94 261.293L270.354 241.806C269.363 241.03 268.635 239.969 268.268 238.766C267.9 237.563 267.911 236.277 268.299 235.081C268.687 233.885 269.433 232.836 270.437 232.077C271.44 231.318 272.653 230.884 273.911 230.835L305.356 229.501C307.112 229.429 308.829 228.962 310.379 228.134C311.929 227.306 313.271 226.138 314.305 224.718C315.34 223.299 316.039 221.664 316.35 219.937C316.662 218.209 316.578 216.433 316.106 214.743L307.694 184.54C307.34 183.331 307.374 182.041 307.789 180.852C308.205 179.663 308.983 178.633 310.013 177.906C311.014 177.136 312.235 176.707 313.499 176.682C314.762 176.657 315.999 177.038 317.029 177.769L343.069 195.098C344.533 196.069 346.198 196.696 347.94 196.933C349.681 197.17 351.453 197.011 353.124 196.467C354.795 195.924 356.322 195.01 357.589 193.794C358.856 192.578 359.832 191.092 360.442 189.446L371.409 160.008C371.845 158.832 372.632 157.817 373.663 157.101C374.694 156.384 375.92 156 377.177 156C378.433 156 379.659 156.384 380.69 157.101C381.721 157.817 382.508 158.832 382.945 160.008L393.911 189.446C394.524 191.092 395.502 192.579 396.771 193.794C398.04 195.01 399.568 195.924 401.24 196.468C402.912 197.011 404.686 197.17 406.429 196.933C408.171 196.696 409.838 196.069 411.304 195.098L437.462 177.769C438.505 177.068 439.74 176.705 440.997 176.728C442.255 176.751 443.475 177.16 444.492 177.899C445.509 178.639 446.273 179.672 446.682 180.86C447.091 182.048 447.124 183.332 446.777 184.54L438.405 214.743C437.935 216.436 437.855 218.214 438.171 219.943C438.487 221.672 439.189 223.307 440.227 224.726C441.265 226.146 442.61 227.312 444.163 228.139C445.716 228.966 447.436 229.431 449.194 229.501H450C442.571 241.852 438.65 255.991 438.66 270.399Z" fill="#E70002"/>
</svg>
