<svg width="124" height="140" viewBox="0 0 124 140" fill="none" xmlns="http://www.w3.org/2000/svg">
<path d="M45.2169 2.38868C45.4036 5.23048 45.3621 8.09302 45.0924 10.9141C45.0509 11.2667 45.0302 11.6193 44.968 11.9512C44.9472 12.1172 44.9265 12.2831 44.9058 12.4491C44.885 12.698 44.968 12.055 44.9058 12.4283C44.885 12.532 44.885 12.6565 44.8642 12.7602C44.7605 13.4655 44.6361 14.1707 44.5117 14.876C44.242 16.2865 43.8894 17.6971 43.4745 19.0661C43.2671 19.7092 43.0596 20.3522 42.8315 20.9952C42.707 21.3064 42.6032 21.6175 42.458 21.9286C42.4373 21.9909 42.3543 22.0946 42.3543 22.1776C42.3543 21.9702 42.4788 21.9079 42.3958 22.0531C42.3129 22.2191 42.2506 22.385 42.1676 22.5509C41.6698 23.6503 41.0683 24.7082 40.4045 25.7039C40.2593 25.9321 40.0934 26.1602 39.9274 26.3884C39.8445 26.5129 39.7407 26.6373 39.6577 26.7618C39.6162 26.8033 39.5747 26.8655 39.554 26.907C39.7614 26.5336 39.637 26.8033 39.5748 26.8863C39.2014 27.3633 38.7866 27.8404 38.3717 28.2968C37.9568 28.7324 37.5419 29.1473 37.0856 29.5621C36.8781 29.7488 36.65 29.9355 36.4219 30.1222C36.3181 30.2051 36.2144 30.2881 36.1107 30.3711C35.9448 30.4956 36.4218 30.1222 36.1729 30.3296C36.0899 30.3918 36.0277 30.4333 35.9447 30.4956C35.4054 30.8897 34.8453 31.2631 34.2645 31.5949C33.6837 31.9268 33.0822 32.1757 32.4807 32.4869C32.5014 32.4661 32.8332 32.3417 32.6051 32.4247C32.5221 32.4662 32.4392 32.4869 32.3562 32.5284C32.1903 32.5906 32.0243 32.6528 31.8376 32.7151C31.5265 32.8188 31.2153 32.9225 30.8834 33.0055C30.2404 33.1922 29.5766 33.3166 28.9128 33.3996C28.5602 33.4411 28.1453 33.8145 27.9794 34.1049C27.8134 34.416 27.7512 34.7479 27.7927 35.1005C27.8964 35.8473 28.5395 36.4488 29.3277 36.4488C30.8419 36.4281 32.3562 36.4281 33.8704 36.5318C34.223 36.5525 34.5549 36.594 34.9076 36.6355C34.9283 36.6355 35.3017 36.6977 35.0528 36.6562C34.7831 36.6148 35.1565 36.677 35.1979 36.677C35.3846 36.6977 35.5714 36.7392 35.758 36.7807C36.5048 36.9259 37.2308 37.1126 37.9361 37.3408C38.0605 37.3823 38.2057 37.4445 38.3302 37.486C38.3924 37.5067 38.4754 37.5482 38.5376 37.5689C38.6621 37.6104 38.7865 37.7349 38.4546 37.5275C38.7036 37.6934 39.0147 37.7764 39.2844 37.9216C39.8029 38.1912 40.3008 38.4816 40.7571 38.8135C40.8816 38.8965 41.006 38.9795 41.1305 39.0832C41.172 39.1247 41.2342 39.1662 41.2757 39.1869C41.4832 39.3321 41.1928 39.1247 41.172 39.1039C41.3794 39.3114 41.6491 39.4981 41.8773 39.6847C42.3336 40.0996 42.7692 40.5145 43.184 40.9708C43.3707 41.1782 43.5574 41.3857 43.7234 41.5931C43.8063 41.6968 43.8894 41.8005 43.9931 41.925C44.1175 42.0909 43.7649 41.6139 43.9516 41.8628C44.0138 41.9457 44.0552 42.008 44.1175 42.0909C44.4701 42.568 44.7813 43.0659 45.0924 43.5637C45.4036 44.0823 45.694 44.6216 45.9637 45.1609C46.0881 45.4306 46.2126 45.7002 46.337 45.9699C46.3578 46.0321 46.3785 46.0944 46.42 46.1358C46.254 45.7417 46.3577 45.9699 46.3992 46.0736C46.4614 46.2395 46.5237 46.3848 46.586 46.5507C47.0631 47.7953 47.4157 49.0606 47.6853 50.3467C47.7683 50.7201 47.8305 51.0727 47.8927 51.4461C47.9135 51.5913 47.9342 51.7572 47.9757 51.9024C47.9964 52.0269 48.0172 52.1306 48.0172 52.2551C48.0172 52.1928 47.9965 52.1306 47.9965 52.0684C47.9965 52.1513 48.0172 52.2136 48.0172 52.2965C48.1002 53.0433 48.1832 53.7693 48.2247 54.5161C48.4528 57.9387 48.2454 61.382 48.0172 64.7839C47.9757 65.5514 48.6395 66.2151 49.3655 66.3188C50.133 66.4226 50.8382 65.9455 51.0664 65.1987C52.7051 59.9922 52.9126 54.4953 54.1364 49.2058C54.4061 48.0234 54.7172 46.8411 55.1321 45.6795C55.215 45.4306 55.3188 45.1816 55.4018 44.9535C55.4433 44.829 55.5262 44.7046 55.5677 44.5594C55.5677 44.5801 55.4224 44.912 55.5262 44.6838C55.5469 44.6216 55.5885 44.5386 55.6092 44.4764C55.8374 43.9786 56.0655 43.5015 56.3145 43.0244C56.8123 42.0702 57.3931 41.1575 58.0361 40.307C58.0776 40.2656 58.1191 40.2033 58.1398 40.1618C57.9324 40.473 57.9946 40.3485 58.0569 40.2655C58.1398 40.1618 58.2228 40.0581 58.3058 39.9544C58.4718 39.747 58.6584 39.5395 58.8451 39.3321C59.1977 38.938 59.5711 38.5646 59.9445 38.2327C60.1727 38.0253 60.3801 37.8386 60.629 37.6519C60.6705 37.6104 60.712 37.5897 60.7742 37.5482C60.4008 37.8386 60.6705 37.6312 60.7327 37.5689C60.8572 37.486 60.9609 37.403 61.0854 37.32C61.5417 37.0089 62.0188 36.7185 62.5166 36.4696C62.6411 36.4073 62.7863 36.3451 62.9107 36.2829C62.9729 36.2621 63.0145 36.2414 63.0767 36.2206C63.3671 36.0962 62.7655 36.3451 63.0352 36.2414C63.3049 36.1377 63.5745 36.034 63.8649 35.951C64.1553 35.868 64.425 35.785 64.7154 35.7228C64.8399 35.7021 64.985 35.6606 65.1095 35.6398C65.234 35.6191 65.8147 35.5361 65.2754 35.5983C65.6903 35.5361 66.0844 35.4739 66.3749 35.142C66.603 34.8931 66.7482 34.6027 66.8105 34.25C66.9142 33.5448 66.4578 32.6943 65.6903 32.5491C65.0887 32.4247 64.4872 32.2794 63.8857 32.0928C63.616 32.0098 63.367 31.9061 63.0974 31.8231C62.9522 31.7609 62.8071 31.6986 62.6619 31.6572C63.139 31.8438 62.5996 31.6157 62.4751 31.5742C61.3757 31.0556 60.3179 30.4333 59.343 29.7073C59.3015 29.6658 59.2392 29.6243 59.1977 29.6036C58.9903 29.4376 59.2807 29.6658 59.3014 29.6866C59.1977 29.5829 59.0526 29.4999 58.9281 29.3962C58.6792 29.1887 58.4509 29.0021 58.2228 28.7946C57.7664 28.3798 57.3101 27.9442 56.8952 27.4671C56.4804 27.0107 56.0863 26.5544 55.6922 26.0773C55.6507 26.015 55.6092 25.9528 55.5469 25.8906C55.5677 25.9113 55.7752 26.181 55.6092 25.9736C55.5055 25.8491 55.4224 25.7246 55.3187 25.6002C55.132 25.3513 54.9454 25.0816 54.7795 24.8327C54.095 23.8163 53.4934 22.7377 52.954 21.6383C52.8296 21.3686 52.7052 21.1197 52.5807 20.85C52.5392 20.7878 52.5185 20.7048 52.4978 20.6426C52.394 20.4144 52.5392 20.7256 52.5392 20.7463C52.4769 20.5596 52.394 20.3937 52.3317 20.2277C52.1036 19.6677 51.8961 19.0868 51.6887 18.506C50.8175 15.9546 50.1745 13.3203 49.6559 10.6652C49.3655 9.19241 49.0959 7.69891 48.8677 6.20541C48.764 5.50014 48.6603 4.81563 48.5566 4.11036C48.5151 3.75773 48.4528 3.42584 48.4113 3.07321C48.3906 2.94875 48.3076 2.36794 48.3906 2.88652C48.3698 2.69983 48.3491 2.53389 48.3284 2.3472C48.2661 1.9116 48.1831 1.55895 47.872 1.24781C47.6023 0.978147 47.1668 0.770726 46.7726 0.791469C46.3785 0.812212 45.9429 0.936661 45.6732 1.24781C45.4035 1.5797 45.1547 1.99456 45.2169 2.38868C45.9429 7.84411 46.7727 13.3618 48.4529 18.6098C50.0708 23.6088 52.7052 28.3798 56.833 31.7194C59.177 33.607 61.8736 35.059 64.8399 35.6191C64.9851 34.6027 65.1095 33.5863 65.2547 32.5699C63.9687 32.7358 62.7863 33.0677 61.5832 33.5863C60.5253 34.0426 59.5503 34.6649 58.6376 35.3909C56.8537 36.7807 55.381 38.5854 54.2194 40.5145C52.9955 42.5266 52.1036 44.746 51.502 47.0278C50.776 49.7244 50.3612 52.504 49.9463 55.2628C49.4899 58.3743 49.0128 61.4857 48.0587 64.4935C49.0751 64.6387 50.0915 64.7631 51.1079 64.9083C51.502 58.7684 51.8547 52.338 49.7804 46.4263C48.0587 41.4894 44.6775 36.8637 39.7614 34.7894C36.4633 33.3996 32.854 33.3581 29.3277 33.3996C29.4729 34.416 29.5973 35.4324 29.7426 36.4488C34.9698 35.7228 39.4296 32.3417 42.4788 28.1931C45.8599 23.5881 47.3327 17.8008 48.038 12.2002C48.4529 8.9435 48.5358 5.66608 48.3076 2.40941C48.2454 1.60043 47.6231 0.812197 46.7519 0.853683C45.9636 0.874427 45.1547 1.51747 45.2169 2.38868Z" fill="#E70002"/>
<path d="M-12.3861 44.5595C-12.0335 46.1152 -11.7224 47.6917 -11.4527 49.2681C-11.3075 50.0356 -11.183 50.8031 -11.0793 51.5706C-11.017 51.9647 -10.9549 52.3381 -10.9134 52.7322C-10.8926 52.8982 -10.8719 53.0848 -10.8512 53.2508C-10.8097 53.5412 -10.8512 53.2715 -10.8512 53.2301C-10.8304 53.3545 -10.8097 53.479 -10.8097 53.6242C-10.3948 56.7564 -10.1459 59.8886 -10.0215 63.0415C-9.95923 64.3898 -9.95914 65.7174 -10.0421 67.0657C-10.0629 67.3768 -10.0837 67.688 -10.1252 67.9991C-10.1459 68.1651 -10.1666 68.331 -10.1874 68.497C-10.2081 68.6629 -10.1459 68.7874 -10.1874 68.4555C-10.1666 68.5592 -10.2289 68.6836 -10.2289 68.7874C-10.3326 69.4304 -10.4571 70.0527 -10.6437 70.675C-10.7267 70.9861 -10.8304 71.2765 -10.9341 71.5877C-10.9756 71.7121 -11.0585 71.8573 -11.0793 71.9818C-10.9963 71.6707 -10.9964 71.8159 -11.0378 71.8988C-11.0793 72.0025 -11.1208 72.0855 -11.1623 72.1892C-11.4527 72.7908 -11.7846 73.3508 -12.1787 73.8902C-12.2824 74.0146 -12.3654 74.1598 -12.4691 74.2843C-12.4484 74.2428 -12.2616 74.0146 -12.4276 74.2221C-12.4691 74.2843 -12.5106 74.3465 -12.5728 74.388C-12.7802 74.6577 -13.0085 74.9273 -13.2366 75.197C-13.6722 75.6948 -14.1493 76.1926 -14.6264 76.6697C-15.1449 77.1883 -15.6843 77.6654 -16.2444 78.1425C-16.5348 78.3914 -16.8251 78.6403 -17.1363 78.8685C-17.1985 78.9307 -17.2815 78.993 -17.3437 79.0344C-17.3852 79.0552 -17.6341 79.2626 -17.4474 79.1174C-17.24 78.9722 -17.5304 79.1797 -17.5512 79.2004C-17.6341 79.2626 -17.7378 79.3249 -17.8208 79.4078C-19.0654 80.3205 -20.3514 81.171 -21.6582 81.98C-22.2183 82.3326 -22.5918 83.0793 -22.3636 83.7431C-22.1562 84.3654 -21.5546 84.9255 -20.87 84.884C-19.5632 84.801 -18.2564 84.7388 -16.9289 84.801C-16.0577 84.8425 -15.1864 84.9255 -14.336 85.0292C-13.8589 85.0707 -13.4026 85.1122 -12.9255 85.1537C-12.7803 85.1537 -12.6351 85.1744 -12.4899 85.1951C-12.4484 85.1951 -12.4276 85.1952 -12.3861 85.2159C-12.2202 85.2366 -12.2617 85.2366 -12.5106 85.1951C-12.4691 85.2159 -12.3653 85.2159 -12.3239 85.2159C-11.992 85.2781 -11.6601 85.3403 -11.3282 85.4441C-11.0378 85.527 -10.7474 85.6308 -10.4777 85.7345C-10.3948 85.7552 -10.3325 85.7967 -10.2495 85.8174C-10.0421 85.9004 -10.623 85.6515 -10.3118 85.7967C-10.1459 85.8797 -10.0006 85.9419 -9.83469 86.0249C-9.25388 86.3153 -8.71458 86.6472 -8.196 87.0205C-8.13377 87.062 -8.07156 87.1242 -8.00934 87.1657C-7.78116 87.3317 -8.07154 87.1243 -8.09229 87.1035C-8.03006 87.2072 -7.80192 87.3317 -7.71895 87.4147C-7.44929 87.6428 -7.20034 87.871 -6.95142 88.0992C-6.47433 88.5555 -5.99722 89.0533 -5.58236 89.5512C-5.37492 89.8001 -5.16751 90.049 -4.98083 90.298C-5.18826 90.0075 -4.75265 90.5884 -4.98083 90.298C-4.93934 90.3602 -4.89783 90.4016 -4.85635 90.4639C-4.73189 90.6298 -4.60749 90.7958 -4.50377 90.9617C-4.10966 91.5218 -3.7363 92.0818 -3.38367 92.6626C-2.61617 93.928 -1.91087 95.2555 -1.26783 96.5831C-0.915203 97.3091 -0.562571 98.0558 -0.23068 98.7819C-0.147709 98.9478 -0.0854588 99.1137 -0.00248718 99.2797C0.0389996 99.3627 0.0805054 99.4664 0.121992 99.5494C0.225708 99.819 0.121971 99.5701 0.101229 99.5079C0.287916 99.9227 0.433098 100.338 0.599043 100.752C1.94734 104.154 2.9845 107.66 3.7105 111.248C3.85571 112.016 4.70621 112.452 5.41148 112.369C6.2412 112.265 6.67681 111.622 6.75978 110.834C7.48579 104.59 5.90925 98.3877 6.28263 92.1233C6.30337 91.6255 6.36562 91.1277 6.4071 90.6506C6.42785 90.5261 6.44863 90.4016 6.44863 90.2772C6.46937 90.0698 6.38638 90.7128 6.42787 90.4017C6.42787 90.3394 6.44863 90.2979 6.44863 90.2357C6.49012 89.966 6.53152 89.6964 6.57301 89.4267C6.7597 88.3688 7.00861 87.3109 7.29902 86.2945C7.46496 85.7552 7.63091 85.2159 7.81759 84.6766C7.90057 84.4276 7.9836 84.1995 8.08731 83.9713C8.1288 83.8469 8.19097 83.7224 8.23246 83.5979C8.33617 83.3698 8.19101 83.7016 8.17027 83.7224C8.21175 83.6394 8.2325 83.5564 8.27398 83.4735C8.70959 82.4985 9.2074 81.5444 9.80895 80.6524C9.95415 80.4242 10.1202 80.1961 10.2861 79.9679C10.3068 79.9264 10.4935 79.6982 10.3068 79.9264C10.1408 80.1546 10.3276 79.9057 10.3691 79.8642C10.452 79.7605 10.535 79.6567 10.6387 79.553C10.9913 79.1382 11.3854 78.744 11.8003 78.3914C11.904 78.2877 12.0285 78.2047 12.1322 78.1217C12.2774 77.9973 11.8418 78.3292 12.0077 78.2255C12.07 78.184 12.1322 78.1425 12.1944 78.0803C12.4226 77.9351 12.6301 77.7899 12.879 77.6447C13.1072 77.5202 13.3353 77.3957 13.5635 77.292C13.605 77.2713 13.8539 77.1676 13.5842 77.2713C13.3353 77.375 13.5428 77.292 13.605 77.2713C13.7502 77.2091 13.8953 77.1676 14.0405 77.1261C14.6628 76.9187 15.2229 76.3171 15.1814 75.6326C15.1399 74.9273 14.725 74.3673 14.0405 74.1391C11.3854 73.2471 8.60591 72.8737 5.93005 72.0233C5.61891 71.9196 5.30776 71.8159 4.99662 71.6914C4.93439 71.6706 4.87208 71.6499 4.80985 71.6292C4.76836 71.6084 4.49872 71.4632 4.72689 71.5877C4.95507 71.7121 4.68543 71.5669 4.64394 71.5462C4.56097 71.5047 4.4573 71.4632 4.37432 71.4217C3.77277 71.1521 3.21267 70.8202 2.67335 70.4468C2.59038 70.3846 2.50737 70.3224 2.42439 70.2809C2.23771 70.1564 2.46596 70.3431 2.50745 70.3431C2.44522 70.3638 2.17548 70.0734 2.11325 70.0112C1.84359 69.7623 1.57397 69.5134 1.32505 69.2437C1.11762 69.0156 0.910189 68.7666 0.702759 68.5177C0.599043 68.3933 0.495327 68.2688 0.391611 68.1443C0.661272 68.4555 0.495367 68.2688 0.433138 68.1858C0.370909 68.1028 0.30868 67.9991 0.225708 67.9162C-0.521044 66.8998 -1.1434 65.8211 -1.70346 64.701C-1.84866 64.4106 -1.9731 64.1409 -2.09756 63.8505C-2.15979 63.7261 -2.22198 63.6016 -2.26346 63.4564C-2.30495 63.3942 -2.32569 63.3112 -2.36718 63.249C-2.49164 62.9586 -2.24272 63.5394 -2.36718 63.2697C-2.61609 62.6682 -2.84435 62.0459 -3.07252 61.4443C-4.00596 58.8722 -4.73195 56.2171 -5.54093 53.6034C-6.66106 50.0771 -7.96785 46.613 -9.66878 43.3356C-10.0422 42.6096 -11.1208 42.3399 -11.8053 42.7755C-12.552 43.2526 -12.7595 44.1238 -12.3654 44.9121C-11.9505 45.7003 -11.5564 46.5093 -11.183 47.3183C-11.017 47.6917 -10.8304 48.065 -10.6852 48.4384C-10.7059 48.3969 -10.8097 48.1273 -10.7059 48.3969C-10.6644 48.4799 -10.6229 48.5836 -10.5815 48.6666C-10.4985 48.874 -10.4156 49.0814 -10.3326 49.2681C-9.75179 50.7201 -9.2332 52.1929 -8.75611 53.6864C-7.8849 56.3623 -7.13811 59.0796 -6.22541 61.7347C-5.3542 64.2654 -4.29628 66.7753 -2.78204 68.9948C-1.97306 70.1771 -1.06042 71.3803 0.0597019 72.2929C1.2628 73.3094 2.59042 74.0354 4.06318 74.5954C7.00869 75.7363 10.2031 76.0682 13.1901 77.0639C13.1901 76.0682 13.1901 75.0725 13.1901 74.0561C8.66814 75.5081 6.07522 80.0094 4.64394 84.241C3.89719 86.419 3.44086 88.7007 3.21269 90.9825C2.92229 93.928 3.12968 96.915 3.3786 99.8605C3.669 103.491 4.02165 107.121 3.60679 110.751C4.6232 110.605 5.63965 110.481 6.65606 110.336C5.99228 107.079 5.05878 103.864 3.89717 100.752C2.71482 97.6202 1.32503 94.5295 -0.35516 91.6255C-1.78643 89.1778 -3.50807 86.7924 -5.70683 84.9877C-6.90993 84.0128 -8.15458 83.2245 -9.60659 82.6645C-10.8927 82.1459 -12.2409 82.0007 -13.61 81.8762C-14.6056 81.7933 -15.5805 81.6688 -16.5762 81.6066C-18.0489 81.5236 -19.501 81.5858 -20.9738 81.6688C-20.7041 82.6437 -20.4552 83.5979 -20.1856 84.5728C-17.7379 83.0586 -15.3524 81.3992 -13.2159 79.4286C-11.1001 77.458 -9.12942 75.197 -8.07152 72.4796C-7.05511 69.866 -6.88919 66.9412 -6.95142 64.1409C-7.01365 60.9672 -7.26262 57.7935 -7.636 54.6613C-8.0716 50.9691 -8.6939 47.2768 -9.50288 43.6468C-9.68957 42.8585 -10.6437 42.3192 -11.4112 42.5681C-12.1372 42.9207 -12.5936 43.709 -12.3861 44.5595Z" fill="#E70002"/>
<path d="M69.217 86.3359C69.5074 87.4768 69.7357 88.6177 69.9016 89.8C69.8809 89.6548 69.8601 89.5304 69.8393 89.3852C70.1505 91.6877 70.192 94.0524 69.8808 96.3549C69.9016 96.2097 69.9223 96.0852 69.943 95.94C69.6941 97.8069 69.217 99.6323 68.491 101.354C68.5533 101.229 68.5948 101.105 68.657 100.981C68.3044 101.81 67.9103 102.619 67.4332 103.387C67.205 103.781 66.9353 104.175 66.6657 104.548C66.5412 104.714 66.4168 104.88 66.2923 105.046C66.6242 104.611 66.3545 104.963 66.2716 105.067C66.1886 105.171 66.1056 105.274 66.0226 105.357C65.4418 106.063 64.7781 106.706 64.0935 107.307C63.9276 107.452 63.7409 107.598 63.575 107.743C63.4713 107.826 63.1186 108.095 63.5542 107.764C63.4505 107.826 63.3675 107.909 63.2638 107.992C62.8697 108.282 62.4549 108.552 62.04 108.821C61.2518 109.299 60.4635 109.713 59.613 110.066C59.7375 110.004 59.8619 109.962 59.9864 109.9C59.3848 110.149 58.7833 110.398 58.1818 110.668C57.7669 110.854 57.3728 111.02 57.0617 111.331C56.3564 111.995 56.4808 113.136 57.2068 113.696C57.5802 113.986 58.0781 114.069 58.5137 114.194C59.2604 114.422 60.0071 114.692 60.7331 115.003C60.6087 114.941 60.4843 114.899 60.3598 114.837C62.3304 115.687 64.2387 116.745 65.9397 118.031C65.9811 118.073 66.0227 118.094 66.0641 118.135C65.7115 117.865 65.8567 117.99 65.9397 118.031C66.0434 118.114 66.1263 118.177 66.23 118.26C66.4167 118.405 66.6034 118.571 66.7694 118.716C67.0805 119.006 67.3917 119.297 67.6821 119.629C67.8273 119.774 67.9517 119.94 68.0969 120.106C68.1592 120.189 68.2214 120.272 68.2836 120.355C68.3458 120.438 68.4496 120.583 68.1592 120.209C68.2007 120.272 68.2421 120.313 68.2836 120.375C68.5325 120.707 68.7815 121.06 68.9889 121.433C69.5283 122.284 69.9638 123.196 70.3787 124.13C70.3164 124.005 70.275 123.881 70.2128 123.756C71.7063 127.324 72.3907 131.162 73.0545 134.958C73.2204 135.974 73.4072 136.991 73.5938 138.007C73.6561 138.36 74.0087 138.774 74.2991 138.94C74.6102 139.106 74.9422 139.169 75.2948 139.127C76.0623 139.023 76.6224 138.38 76.6431 137.592C76.7053 135.87 76.7676 134.149 76.8298 132.406C76.892 130.747 76.892 129.067 77.1202 127.407C77.0994 127.552 77.0787 127.677 77.058 127.822C77.2654 126.391 77.5765 124.96 77.9499 123.57C78.1366 122.885 78.344 122.201 78.5514 121.516C78.7381 120.956 78.9041 120.375 79.1323 119.815C79.0701 119.94 79.0285 120.064 78.9663 120.189C79.2567 119.525 79.6301 118.903 80.0657 118.322C80.128 118.239 80.1902 118.156 80.2524 118.052C80.3976 117.865 79.9827 118.384 80.2109 118.094C80.3561 117.907 80.5013 117.741 80.6465 117.554C80.9161 117.222 81.2066 116.911 81.497 116.6C82.1193 115.957 82.783 115.335 83.4676 114.733C83.6335 114.588 83.7994 114.464 83.9654 114.318C84.0484 114.256 84.1314 114.194 84.2143 114.111C84.2558 114.069 84.2972 114.028 84.3595 114.007C84.2972 114.049 84.0484 114.256 84.2351 114.09C84.567 113.841 84.9196 113.592 85.2515 113.343C85.936 112.887 86.6413 112.451 87.4088 112.14C87.2843 112.203 87.1599 112.244 87.0354 112.306C87.0976 112.286 87.1599 112.265 87.2221 112.223C87.5955 112.078 87.9481 111.871 88.1555 111.518C88.3215 111.207 88.3837 110.875 88.3422 110.522C88.2385 109.755 87.5955 109.174 86.8072 109.174C86.4546 109.174 86.102 109.153 85.7701 109.112C85.9153 109.133 86.0397 109.153 86.1849 109.174C85.5004 109.07 84.8158 108.884 84.1728 108.614C84.2973 108.676 84.4218 108.718 84.5462 108.78C84.1521 108.614 83.7787 108.427 83.426 108.199C83.2394 108.095 83.0735 107.971 82.8868 107.867C82.8038 107.805 82.7001 107.743 82.6171 107.681C82.5756 107.66 82.5341 107.618 82.4926 107.598C82.4719 107.577 82.4512 107.556 82.4304 107.556C82.2852 107.432 82.6378 107.722 82.6171 107.701C81.9118 107.121 81.248 106.498 80.6257 105.814C80.4805 105.627 80.3146 105.461 80.1694 105.274C80.1072 105.191 80.0242 105.088 79.962 105.005C79.7961 104.797 80.128 105.212 80.0657 105.129C80.0242 105.067 79.9827 105.025 79.9412 104.963C79.6301 104.569 79.3604 104.154 79.07 103.739C78.4892 102.868 77.9707 101.955 77.4936 101.022C76.9335 99.9434 76.415 98.8233 75.9379 97.7032C76.0001 97.8276 76.0415 97.9521 76.1038 98.0765C74.714 94.7784 73.6353 91.335 72.7434 87.8502C72.5359 87.0412 72.3493 86.253 72.1626 85.444C71.9759 84.6558 71.0217 84.1164 70.2542 84.3653C69.4659 84.6972 69.0096 85.4855 69.217 86.3359C69.6526 88.2236 70.1297 90.1112 70.6898 91.9781C71.3328 94.1561 72.0797 96.3341 72.9301 98.4499C73.8428 100.669 74.8592 102.868 76.1453 104.901C77.2862 106.726 78.6552 108.51 80.3353 109.859C81.1443 110.502 81.9948 111.103 82.949 111.518C84.0069 111.974 85.0441 112.265 86.2057 112.369C86.4339 112.389 86.662 112.389 86.8694 112.389C86.7242 111.373 86.5998 110.356 86.4545 109.34C84.7536 110.004 83.2808 111.041 81.8703 112.182C80.4598 113.323 79.1323 114.609 78.0122 116.04C77.4521 116.745 76.9335 117.451 76.5186 118.26C76.0415 119.214 75.7304 120.251 75.4193 121.267C74.6725 123.736 74.0709 126.246 73.8842 128.818C73.7805 130.27 73.7598 131.743 73.7183 133.195C73.6768 134.688 73.6146 136.161 73.5731 137.654C74.5895 137.509 75.6059 137.385 76.6224 137.239C75.8756 133.112 75.3155 128.922 73.9879 124.939C73.3034 122.927 72.453 120.915 71.2084 119.172C70.5861 118.28 69.8809 117.451 69.0927 116.704C68.18 115.874 67.1635 115.127 66.1263 114.464C64.9855 113.717 63.7824 113.053 62.5378 112.493C61.8326 112.161 61.1065 111.871 60.3598 111.601C59.7582 111.394 59.1567 111.228 58.5551 111.041C58.6796 111.103 58.8041 111.145 58.9285 111.207C59.1152 111.394 59.2811 111.56 59.4678 111.746C59.53 111.871 59.5716 111.995 59.6338 112.12C59.6545 112.265 59.6752 112.389 59.696 112.534C59.6752 112.68 59.6545 112.804 59.6338 112.949C59.5716 113.074 59.53 113.198 59.4678 113.323C59.3433 113.509 59.1774 113.738 58.9907 113.821C59.0322 113.8 59.053 113.779 59.0944 113.758C59.1982 113.696 59.3019 113.655 59.4056 113.592C59.696 113.447 60.0071 113.323 60.3183 113.198C60.1938 113.26 60.0694 113.302 59.9449 113.364C60.7954 113.012 61.6666 112.659 62.4963 112.223C63.4505 111.725 64.3424 111.145 65.1929 110.502C66.9975 109.112 68.5533 107.473 69.7771 105.565C72.1418 101.935 73.179 97.5372 73.1997 93.2434C73.1997 90.6713 72.8471 88.0784 72.2248 85.5892C72.0173 84.801 71.1047 84.2409 70.3165 84.5106C69.4868 84.6973 68.9889 85.4855 69.217 86.3359Z" fill="#E70002"/>
<path d="M90.2297 31.3044C90.3956 32.0719 90.5408 32.8394 90.6653 33.6069C90.7275 33.9803 90.7897 34.3744 90.852 34.7685C90.8727 34.8929 90.9764 35.4738 90.8934 35.0174C90.9349 35.2456 90.9557 35.4738 90.9764 35.6812C91.1631 37.2577 91.3083 38.8549 91.3913 40.4521C91.5573 43.6673 91.5364 46.9032 91.3083 50.0976C91.246 50.8859 91.1838 51.6741 91.1216 52.4831C91.0801 52.8357 91.0594 53.2091 91.0179 53.5617C90.9971 53.7277 90.9764 53.8936 90.9557 54.0803C90.9557 54.1633 90.9349 54.2463 90.9349 54.3085C90.9142 54.4329 90.9349 54.3707 90.9557 54.1218C90.9557 54.184 90.9349 54.2463 90.9349 54.3085C90.7482 55.636 90.4578 56.9428 90.1052 58.2289C89.9185 58.8719 89.7111 59.515 89.4829 60.1373C89.3584 60.4484 89.2547 60.7596 89.1302 61.0707C89.1095 61.1537 89.068 61.2159 89.0473 61.2989C89.1717 60.9048 89.1095 61.1329 89.068 61.2367C88.9851 61.4026 88.9228 61.5893 88.8399 61.7552C88.2798 62.9791 87.6368 64.1407 86.8693 65.2608C86.6618 65.572 86.4337 65.8831 86.2055 66.1735C86.1433 66.2565 86.0188 66.3602 86.2677 66.0905C86.2055 66.1735 86.1225 66.2565 86.0603 66.3395C85.9358 66.4847 85.8321 66.6299 85.7076 66.7751C85.2305 67.3351 84.7327 67.8537 84.1934 68.3723C83.9238 68.6212 83.6541 68.8701 83.3637 69.119C83.2185 69.2435 83.0525 69.3472 82.9281 69.4717C83.1977 69.202 83.0941 69.3472 82.9904 69.4302C82.9074 69.4924 82.8244 69.5546 82.7206 69.6169C82.1191 70.0525 81.4761 70.4673 80.8123 70.82C80.2315 71.1311 79.8996 71.9401 80.107 72.5831C80.19 72.8321 80.3145 73.081 80.5012 73.2676C80.7294 73.5166 81.2479 73.7655 81.6005 73.724C82.9903 73.5581 84.3801 73.4751 85.7699 73.5166C86.4544 73.5373 87.1182 73.5788 87.8027 73.641C87.9686 73.6618 88.1553 73.6825 88.3213 73.7033C88.4457 73.724 89.068 73.807 88.5287 73.724C88.8813 73.7862 89.234 73.8277 89.5866 73.8899C90.9349 74.1181 92.2832 74.45 93.59 74.8649C94.2538 75.0723 94.9176 75.3005 95.5606 75.5701C95.7058 75.6324 95.8302 75.6738 95.9755 75.7361C96.0584 75.7776 96.1414 75.7983 96.2244 75.8398C95.7888 75.6738 96.0792 75.7776 96.1829 75.819C96.5148 75.9643 96.826 76.1094 97.1578 76.2547C98.4232 76.8562 99.647 77.52 100.809 78.2667C101.389 78.6401 101.95 79.0135 102.489 79.4284C102.634 79.5321 102.779 79.6358 102.924 79.7395C102.987 79.8017 103.07 79.8432 103.132 79.9054C102.8 79.6565 102.945 79.7602 103.028 79.8225C103.339 80.0714 103.63 80.2996 103.92 80.5485C104.957 81.4197 105.953 82.3739 106.866 83.3695C107.343 83.8881 107.799 84.4274 108.255 84.9875C108.338 85.1119 108.442 85.2157 108.525 85.3401C108.193 84.946 108.587 85.4231 108.649 85.5268C108.857 85.8172 109.064 86.1076 109.272 86.398C110.143 87.6633 110.931 88.9909 111.595 90.3599C111.761 90.7126 111.927 91.0652 112.072 91.3971C112.197 91.6875 111.927 91.0445 112.051 91.3556C112.093 91.4593 112.134 91.5838 112.176 91.6875C112.238 91.8535 112.3 92.0194 112.362 92.1853C112.653 92.9321 112.902 93.6996 113.109 94.4671C113.337 95.2553 114.229 95.8154 115.018 95.5457C115.391 95.4213 115.764 95.1931 115.951 94.8404C116.159 94.4463 116.179 94.073 116.117 93.6374C116.117 93.6166 116.055 93.2225 116.096 93.4714C116.138 93.7203 116.076 93.347 116.076 93.3262C116.055 93.181 116.034 93.0358 116.013 92.8906C115.972 92.5587 115.93 92.2268 115.91 91.8949C115.868 91.3764 115.827 90.8578 115.806 90.3392C115.785 89.5302 115.806 88.7005 115.785 87.8915C115.785 86.8751 115.723 85.8794 115.619 84.863C115.536 84.0955 115.433 83.328 115.329 82.5606C115.267 82.1042 115.204 81.6479 115.142 81.1708C115.121 81.0878 115.121 81.0048 115.101 80.9218C115.038 80.5277 115.142 81.1708 115.101 80.9218C115.08 80.6937 115.038 80.4862 115.018 80.2581C114.831 78.7853 114.665 77.2918 114.624 75.7983C114.603 75.0308 114.603 74.2841 114.665 73.5166C114.686 73.1639 114.706 72.7906 114.769 72.4379C114.686 72.8735 114.81 72.2305 114.81 72.1475C114.852 71.9401 114.872 71.7534 114.914 71.546C115.038 70.9029 115.225 70.2807 115.433 69.6791C115.515 69.4094 115.619 69.1398 115.723 68.8701C115.764 68.7457 115.806 68.6212 115.868 68.5175C115.889 68.4345 115.93 68.3723 115.951 68.2893C116.096 67.9574 115.889 68.4553 115.951 68.3101C116.449 67.2107 117.009 66.1528 117.673 65.1571C117.859 64.8874 118.129 64.597 118.295 64.3066C118.274 64.3274 118.067 64.597 118.233 64.3896C118.295 64.3066 118.357 64.2444 118.42 64.1614C118.523 64.037 118.627 63.9125 118.731 63.7881C119.166 63.2902 119.623 62.8131 120.12 62.3568C120.369 62.1286 120.639 61.9005 120.909 61.6723C121.116 61.5063 120.846 61.7345 120.826 61.7345C120.909 61.693 120.971 61.6101 121.054 61.5686C121.199 61.4648 121.344 61.3611 121.469 61.2574C122.029 60.8633 122.61 60.5314 123.232 60.2203C123.813 59.9299 124.145 59.0794 123.937 58.4571C123.709 57.7726 123.149 57.3577 122.444 57.3162C121.718 57.2747 120.992 57.2125 120.266 57.1295C120.1 57.1088 119.934 57.088 119.768 57.0673C119.685 57.0673 119.602 57.0258 119.519 57.0258C119.934 57.0051 119.664 57.0466 119.54 57.0258C119.166 56.9636 118.793 56.9221 118.44 56.8599C117.03 56.611 115.64 56.2998 114.292 55.9057C113.607 55.6983 112.943 55.4908 112.28 55.2419C111.968 55.1175 111.657 55.0137 111.325 54.8893C111.284 54.8685 110.848 54.7026 110.848 54.7026C110.911 54.7233 110.973 54.7648 111.035 54.7856C110.973 54.7648 110.911 54.7233 110.848 54.7026C110.765 54.6611 110.662 54.6196 110.579 54.5781C109.272 53.9973 108.027 53.3336 106.824 52.5661C106.223 52.1719 105.621 51.7778 105.061 51.3422C104.999 51.3007 104.957 51.2592 104.895 51.2178C104.957 51.28 105.248 51.4667 104.895 51.2178C104.771 51.114 104.625 51.0103 104.501 50.9066C104.21 50.6784 103.941 50.4295 103.671 50.1806C103.153 49.7035 102.634 49.2057 102.157 48.6871C101.659 48.1478 101.223 47.567 100.746 47.0276C101.037 47.3595 100.684 46.9447 100.622 46.841C100.518 46.6958 100.415 46.5713 100.311 46.4261C100.083 46.115 99.8752 45.8038 99.6678 45.4927C99.2529 44.8704 98.8795 44.2273 98.5061 43.5843C97.7801 42.2982 97.1371 40.9707 96.5356 39.6016C96.5148 39.5394 96.4733 39.4772 96.4526 39.4149C96.4319 39.3527 96.3904 39.2905 96.3697 39.2282C96.4526 39.4357 96.4733 39.4564 96.4111 39.3112C96.3281 39.1245 96.2452 38.9171 96.1622 38.7304C96.017 38.357 95.8718 37.9837 95.7266 37.6103C95.4362 36.8428 95.1458 36.0546 94.8761 35.2871C94.316 33.6898 93.7974 32.0926 93.2789 30.4954C93.0299 29.7279 92.1795 29.1471 91.3705 29.4168C90.5408 29.645 89.96 30.4747 90.2297 31.3044C92.0966 37.1332 94.0464 43.1487 97.6764 48.1478C99.5226 50.6992 101.742 52.8979 104.356 54.7026C106.824 56.4035 109.583 57.6896 112.425 58.623C115.661 59.6809 119.042 60.2617 122.444 60.4484C122.174 59.4735 121.925 58.5193 121.655 57.5444C116.947 59.8884 113.669 64.5556 112.238 69.5546C111.367 72.6039 111.408 75.7776 111.761 78.889C111.865 79.7602 111.968 80.6107 112.093 81.4819C112.114 81.6894 112.155 81.876 112.176 82.0835C112.197 82.1664 112.197 82.2494 112.217 82.3324C112.28 82.7265 112.176 82.0835 112.217 82.3531C112.28 82.7472 112.321 83.1621 112.383 83.5562C112.528 84.7801 112.674 86.0039 112.694 87.2277C112.715 88.1612 112.694 89.0946 112.715 90.0281C112.757 91.5008 112.923 92.9736 113.13 94.4463C114.126 94.1767 115.121 93.8863 116.138 93.6166C114.541 87.9745 111.222 82.8717 106.866 78.9928C102.51 75.0931 97.1164 72.2512 91.3913 71.0689C88.1969 70.4051 84.878 70.1977 81.6421 70.6125C81.9117 71.5875 82.1606 72.5416 82.4303 73.5166C87.5331 70.7163 90.9764 65.6757 92.781 60.241C93.7145 57.4199 94.1294 54.4952 94.3575 51.5289C94.6272 48.2515 94.7102 44.9741 94.5857 41.6967C94.4405 37.9422 94.0463 34.1877 93.2789 30.5162C93.1129 29.7279 92.138 29.1886 91.3705 29.4375C90.4786 29.6657 90.0637 30.4539 90.2297 31.3044Z" fill="#E70002"/>
</svg>
