<svg width="100" height="139" viewBox="0 0 100 139" fill="none" xmlns="http://www.w3.org/2000/svg">
<path d="M67.6486 1.59864C67.8352 4.44044 67.7937 7.30298 67.5241 10.124C67.4826 10.4767 67.4618 10.8293 67.3996 11.1612C67.3789 11.3271 67.3581 11.4931 67.3374 11.659C67.3167 11.9079 67.3996 11.2649 67.3374 11.6383C67.3167 11.742 67.3166 11.8665 67.2959 11.9702C67.1922 12.6754 67.0678 13.3807 66.9433 14.086C66.6736 15.4965 66.321 16.907 65.9062 18.2761C65.6987 18.9191 65.4913 19.5621 65.2631 20.2052C65.1386 20.5163 65.0349 20.8275 64.8897 21.1386C64.8689 21.2008 64.7859 21.3046 64.7859 21.3875C64.7859 21.1801 64.9104 21.1179 64.8275 21.2631C64.7445 21.429 64.6822 21.595 64.5993 21.7609C64.1014 22.8603 63.4999 23.9182 62.8361 24.9139C62.6909 25.142 62.525 25.3702 62.3591 25.5984C62.2761 25.7228 62.1723 25.8473 62.0893 25.9718C62.0479 26.0132 62.0064 26.0755 61.9856 26.117C62.1931 25.7436 62.0686 26.0132 62.0064 26.0962C61.633 26.5733 61.2182 27.0504 60.8033 27.5068C60.3885 27.9424 59.9736 28.3572 59.5172 28.7721C59.3098 28.9588 59.0817 29.1454 58.8535 29.3321C58.7498 29.4151 58.6461 29.4981 58.5424 29.5811C58.3764 29.7055 58.8535 29.3321 58.6045 29.5396C58.5216 29.6018 58.4593 29.6433 58.3764 29.7055C57.837 30.0996 57.2769 30.473 56.6961 30.8049C56.1153 31.1368 55.5139 31.3857 54.9123 31.6968C54.9331 31.6761 55.2649 31.5517 55.0367 31.6346C54.9537 31.6761 54.8708 31.6969 54.7878 31.7383C54.6219 31.8006 54.456 31.8628 54.2693 31.925C53.9581 32.0287 53.647 32.1325 53.3151 32.2154C52.672 32.4021 52.0082 32.5266 51.3445 32.6095C50.9918 32.651 50.577 33.0244 50.411 33.3148C50.2451 33.626 50.1829 33.9578 50.2244 34.3105C50.3281 35.0572 50.9711 35.6588 51.7593 35.6588C53.2736 35.638 54.7878 35.638 56.302 35.7417C56.6547 35.7625 56.9866 35.804 57.3392 35.8455C57.3599 35.8455 57.7334 35.9077 57.4844 35.8662C57.2148 35.8247 57.5881 35.887 57.6296 35.887C57.8163 35.9077 58.003 35.9492 58.1897 35.9907C58.9364 36.1359 59.6624 36.3226 60.3677 36.5507C60.4922 36.5922 60.6373 36.6544 60.7618 36.6959C60.824 36.7167 60.907 36.7582 60.9692 36.7789C61.0937 36.8204 61.2182 36.9449 60.8863 36.7374C61.1352 36.9034 61.4463 36.9863 61.716 37.1315C62.2346 37.4012 62.7324 37.6916 63.1888 38.0235C63.3132 38.1065 63.4377 38.1894 63.5621 38.2932C63.6036 38.3346 63.6659 38.3761 63.7074 38.3969C63.9148 38.5421 63.6244 38.3346 63.6037 38.3139C63.8111 38.5213 64.0807 38.708 64.3089 38.8947C64.7652 39.3096 65.2008 39.7244 65.6157 40.1808C65.8024 40.3882 65.9891 40.5956 66.155 40.8031C66.238 40.9068 66.321 41.0105 66.4247 41.1349C66.5492 41.3009 66.1965 40.8238 66.3832 41.0727C66.4454 41.1557 66.4869 41.2179 66.5491 41.3009C66.9017 41.778 67.2129 42.2758 67.5241 42.7737C67.8352 43.2922 68.1257 43.8315 68.3953 44.3709C68.5198 44.6405 68.6442 44.9102 68.7687 45.1798C68.7894 45.2421 68.8101 45.3043 68.8516 45.3458C68.6857 44.9517 68.7894 45.1798 68.8308 45.2836C68.8931 45.4495 68.9554 45.5947 69.0176 45.7607C69.4947 47.0052 69.8473 48.2706 70.117 49.5566C70.1999 49.93 70.2622 50.2827 70.3244 50.656C70.3451 50.8012 70.3659 50.9672 70.4073 51.1124C70.4281 51.2368 70.4489 51.3406 70.4489 51.465C70.4489 51.4028 70.4281 51.3405 70.4281 51.2783C70.4281 51.3613 70.4489 51.4235 70.4489 51.5065C70.5318 52.2532 70.6148 52.9793 70.6563 53.726C70.8845 57.1486 70.677 60.592 70.4489 63.9938C70.4074 64.7613 71.0712 65.4251 71.7972 65.5288C72.5647 65.6325 73.2699 65.1554 73.498 64.4087C75.1367 59.2022 75.3442 53.7052 76.5681 48.4158C76.8377 47.2334 77.1488 46.0511 77.5637 44.8894C77.6467 44.6405 77.7505 44.3916 77.8334 44.1634C77.8749 44.039 77.9578 43.9145 77.9993 43.7693C77.9993 43.7901 77.8541 44.122 77.9578 43.8938C77.9785 43.8316 78.0201 43.7486 78.0409 43.6864C78.269 43.1885 78.4972 42.7114 78.7461 42.2343C79.2439 41.2802 79.8247 40.3675 80.4677 39.517C80.5092 39.4755 80.5507 39.4133 80.5714 39.3718C80.364 39.6829 80.4263 39.5585 80.4885 39.4755C80.5715 39.3718 80.6545 39.2681 80.7375 39.1644C80.9034 38.9569 81.09 38.7495 81.2767 38.5421C81.6293 38.1479 82.0028 37.7746 82.3761 37.4427C82.6043 37.2353 82.8117 37.0486 83.0606 36.8619C83.1021 36.8204 83.1436 36.7996 83.2059 36.7582C82.8325 37.0486 83.1021 36.8411 83.1643 36.7789C83.2888 36.6959 83.3925 36.613 83.517 36.53C83.9734 36.2188 84.4504 35.9284 84.9483 35.6795C85.0727 35.6173 85.2179 35.5551 85.3424 35.4928C85.4046 35.4721 85.4461 35.4513 85.5084 35.4306C85.7988 35.3061 85.1972 35.5551 85.4668 35.4513C85.7365 35.3476 86.0062 35.2439 86.2966 35.161C86.587 35.078 86.8566 34.995 87.147 34.9328C87.2715 34.912 87.4167 34.8706 87.5411 34.8498C87.6656 34.8291 88.2464 34.7461 87.7071 34.8083C88.1219 34.7461 88.5161 34.6839 88.8065 34.352C89.0347 34.1031 89.1799 33.8126 89.2421 33.46C89.3458 32.7547 88.8894 31.9043 88.1219 31.7591C87.5204 31.6346 86.9189 31.4894 86.3173 31.3027C86.0477 31.2197 85.7987 31.116 85.529 31.0331C85.3838 30.9708 85.2387 30.9086 85.0935 30.8671C85.5706 31.0538 85.0312 30.8256 84.9067 30.7841C83.8074 30.2656 82.7495 29.6433 81.7746 28.9173C81.7331 28.8758 81.6709 28.8343 81.6294 28.8136C81.4219 28.6476 81.7123 28.8758 81.7331 28.8965C81.6294 28.7928 81.4842 28.7098 81.3597 28.6061C81.1108 28.3987 80.8826 28.212 80.6544 28.0046C80.1981 27.5897 79.7417 27.1541 79.3269 26.677C78.912 26.2207 78.5179 25.7643 78.1238 25.2872C78.0823 25.225 78.0408 25.1628 77.9786 25.1006C77.9993 25.1213 78.2068 25.3909 78.0409 25.1835C77.9371 25.0591 77.8541 24.9346 77.7504 24.8102C77.5637 24.5612 77.3771 24.2916 77.2111 24.0426C76.5266 23.0262 75.925 21.9476 75.3857 20.8482C75.2612 20.5786 75.1368 20.3296 75.0123 20.06C74.9709 19.9978 74.9501 19.9148 74.9294 19.8526C74.8257 19.6244 74.9708 19.9355 74.9708 19.9563C74.9086 19.7696 74.8256 19.6036 74.7634 19.4377C74.5352 18.8776 74.3278 18.2968 74.1203 17.716C73.2491 15.1646 72.6061 12.5302 72.0875 9.87513C71.7971 8.40237 71.5275 6.90887 71.2994 5.41537C71.1956 4.7101 71.0919 4.02559 70.9882 3.32032C70.9467 2.96769 70.8845 2.6358 70.843 2.28317C70.8222 2.15871 70.7392 1.5779 70.8222 2.09648C70.8015 1.90979 70.7808 1.74385 70.76 1.55716C70.6978 1.12156 70.6148 0.768914 70.3036 0.457768C70.034 0.188108 69.5984 -0.0193127 69.2043 0.00143035C68.8102 0.0221734 68.3745 0.146622 68.1048 0.457768C67.8352 0.789657 67.5863 1.20452 67.6486 1.59864C68.3746 7.05407 69.2043 12.5717 70.8845 17.8197C72.5025 22.8188 75.1368 27.5897 79.2647 30.9294C81.6086 32.817 84.3053 34.269 87.2715 34.829C87.4167 33.8126 87.5412 32.7962 87.6864 31.7798C86.4003 31.9458 85.2179 32.2777 84.0148 32.7962C82.9569 33.2526 81.982 33.8749 81.0693 34.6009C79.2854 35.9907 77.8126 37.7953 76.651 39.7244C75.4272 41.7365 74.5352 43.956 73.9337 46.2377C73.2077 48.9343 72.7928 51.7139 72.3779 54.4728C71.9216 57.5842 71.4445 60.6957 70.4903 63.7034C71.5067 63.8486 72.5232 63.9731 73.5396 64.1183C73.9337 57.9783 74.2863 51.548 72.212 45.6362C70.4904 40.6994 67.1092 36.0736 62.1931 33.9993C58.8949 32.6095 55.2857 32.5681 51.7593 32.6095C51.9045 33.626 52.029 34.6424 52.1742 35.6588C57.4014 34.9328 61.8612 31.5517 64.9104 27.403C68.2915 22.7981 69.7644 17.0108 70.4696 11.4101C70.8845 8.15346 70.9674 4.87604 70.7393 1.61938C70.677 0.810395 70.0547 0.0221582 69.1835 0.0636444C68.3953 0.0843875 67.5863 0.727428 67.6486 1.59864Z" fill="#E70002"/>
<path d="M10.0455 43.7694C10.3981 45.3252 10.7093 46.9016 10.9789 48.4781C11.1241 49.2456 11.2487 50.0131 11.3524 50.7806C11.4146 51.1747 11.4768 51.5481 11.5183 51.9422C11.539 52.1081 11.5597 52.2948 11.5805 52.4608C11.6219 52.7512 11.5805 52.4815 11.5805 52.44C11.6012 52.5645 11.622 52.6889 11.622 52.8341C12.0369 55.9663 12.2857 59.0986 12.4102 62.2515C12.4724 63.5998 12.4725 64.9274 12.3895 66.2757C12.3688 66.5868 12.348 66.898 12.3065 67.2091C12.2857 67.375 12.265 67.541 12.2443 67.7069C12.2235 67.8729 12.2858 67.9973 12.2443 67.6654C12.265 67.7692 12.2028 67.8936 12.2028 67.9973C12.099 68.6404 11.9746 69.2626 11.7879 69.8849C11.7049 70.1961 11.6012 70.4865 11.4975 70.7976C11.456 70.9221 11.3731 71.0673 11.3524 71.1918C11.4353 70.8806 11.4353 71.0258 11.3938 71.1088C11.3523 71.2125 11.3108 71.2955 11.2693 71.3992C10.9789 72.0007 10.647 72.5608 10.2529 73.1001C10.1492 73.2246 10.0663 73.3698 9.96254 73.4942C9.98329 73.4528 10.17 73.2246 10.0041 73.432C9.96258 73.4943 9.92106 73.5565 9.85883 73.598C9.6514 73.8676 9.42318 74.1373 9.19501 74.4069C8.7594 74.9048 8.28237 75.4026 7.80528 75.8797C7.28671 76.3983 6.74732 76.8754 6.18726 77.3524C5.89686 77.6014 5.6065 77.8503 5.29535 78.0785C5.23312 78.1407 5.15015 78.2029 5.08792 78.2444C5.04643 78.2652 4.79752 78.4726 4.9842 78.3274C5.19163 78.1822 4.90123 78.3896 4.88049 78.4104C4.79752 78.4726 4.69384 78.5348 4.61087 78.6178C3.36628 79.5305 2.08021 80.3809 0.773399 81.1899C0.213336 81.5425 -0.16012 82.2893 0.0680535 82.9531C0.275484 83.5754 0.877074 84.1354 1.5616 84.0939C2.86841 84.011 4.17522 83.9488 5.50278 84.011C6.37399 84.0525 7.2452 84.1354 8.09567 84.2392C8.57276 84.2807 9.02906 84.3221 9.50616 84.3636C9.65136 84.3636 9.79658 84.3843 9.94178 84.4051C9.98327 84.4051 10.004 84.4051 10.0455 84.4259C10.2114 84.4466 10.1699 84.4466 9.92102 84.4051C9.9625 84.4258 10.0663 84.4259 10.1078 84.4259C10.4397 84.4881 10.7715 84.5503 11.1034 84.654C11.3938 84.737 11.6842 84.8407 11.9539 84.9444C12.0369 84.9652 12.0991 85.0066 12.1821 85.0274C12.3895 85.1104 11.8087 84.8614 12.1198 85.0066C12.2857 85.0896 12.431 85.1518 12.597 85.2348C13.1778 85.5252 13.7171 85.8571 14.2356 86.2305C14.2979 86.272 14.3601 86.3342 14.4223 86.3757C14.6505 86.5416 14.3601 86.3342 14.3394 86.3135C14.4016 86.4172 14.6297 86.5416 14.7127 86.6246C14.9823 86.8528 15.2313 87.081 15.4802 87.3091C15.9573 87.7655 16.4344 88.2633 16.8493 88.7611C17.0567 89.0101 17.2641 89.259 17.4508 89.5079C17.2434 89.2175 17.679 89.7983 17.4508 89.5079C17.4923 89.5701 17.5338 89.6116 17.5753 89.6738C17.6998 89.8398 17.8242 90.0057 17.9279 90.1717C18.322 90.7317 18.6953 91.2918 19.048 91.8726C19.8155 93.1379 20.5208 94.4655 21.1638 95.7931C21.5164 96.5191 21.8691 97.2658 22.201 97.9918C22.2839 98.1578 22.3462 98.3237 22.4292 98.4897C22.4706 98.5726 22.5121 98.6763 22.5536 98.7593C22.6573 99.029 22.5536 98.78 22.5329 98.7178C22.7196 99.1327 22.8647 99.5475 23.0307 99.9624C24.379 103.364 25.4161 106.87 26.1421 110.458C26.2873 111.226 27.1379 111.661 27.8431 111.579C28.6728 111.475 29.1084 110.832 29.1914 110.044C29.9174 103.8 28.3409 97.5977 28.7143 91.3333C28.735 90.8355 28.7973 90.3376 28.8387 89.8605C28.8595 89.7361 28.8803 89.6116 28.8803 89.4871C28.901 89.2797 28.818 89.9228 28.8595 89.6116C28.8595 89.5494 28.8803 89.5079 28.8803 89.4457C28.9218 89.176 28.9632 88.9063 29.0047 88.6367C29.1913 87.5788 29.4403 86.5209 29.7307 85.5045C29.8966 84.9652 30.0625 84.4258 30.2492 83.8865C30.3322 83.6376 30.4152 83.4094 30.519 83.1813C30.5604 83.0568 30.6226 82.9323 30.6641 82.8079C30.7678 82.5797 30.6227 82.9116 30.6019 82.9323C30.6434 82.8494 30.6641 82.7664 30.7056 82.6834C31.1412 81.7085 31.639 80.7543 32.2406 79.8624C32.3858 79.6342 32.5518 79.406 32.7177 79.1778C32.7385 79.1364 32.9251 78.9082 32.7384 79.1364C32.5725 79.3645 32.7592 79.1156 32.8007 79.0741C32.8837 78.9704 32.9666 78.8667 33.0703 78.763C33.4229 78.3481 33.8171 77.954 34.2319 77.6014C34.3357 77.4977 34.4601 77.4147 34.5639 77.3317C34.7091 77.2072 34.2734 77.5391 34.4394 77.4354C34.5016 77.3939 34.5638 77.3525 34.626 77.2902C34.8542 77.145 35.0617 76.9998 35.3106 76.8546C35.5388 76.7302 35.7669 76.6057 35.9951 76.502C36.0366 76.4812 36.2855 76.3775 36.0159 76.4812C35.767 76.585 35.9744 76.502 36.0366 76.4812C36.1818 76.419 36.327 76.3775 36.4722 76.3361C37.0945 76.1286 37.6545 75.5271 37.613 74.8425C37.5715 74.1373 37.1567 73.5772 36.4722 73.349C33.817 72.4571 31.0376 72.0837 28.3617 71.2332C28.0505 71.1295 27.7394 71.0258 27.4283 70.9014C27.366 70.8806 27.3037 70.8599 27.2415 70.8391C27.2 70.8184 26.9304 70.6732 27.1585 70.7976C27.3867 70.9221 27.1171 70.7769 27.0756 70.7562C26.9926 70.7147 26.8889 70.6732 26.806 70.6317C26.2044 70.362 25.6443 70.0301 25.105 69.6568C25.022 69.5945 24.939 69.5323 24.856 69.4908C24.6693 69.3664 24.8976 69.5531 24.9391 69.5531C24.8769 69.5738 24.6071 69.2834 24.5449 69.2212C24.2752 68.9723 24.0056 68.7233 23.7567 68.4537C23.5493 68.2255 23.3418 67.9766 23.1344 67.7277C23.0307 67.6032 22.927 67.4788 22.8233 67.3543C23.0929 67.6654 22.927 67.4787 22.8648 67.3958C22.8025 67.3128 22.7403 67.2091 22.6573 67.1261C21.9106 66.1097 21.2882 65.0311 20.7282 63.9109C20.583 63.6205 20.4585 63.3509 20.3341 63.0605C20.2719 62.936 20.2097 62.8116 20.1682 62.6664C20.1267 62.6041 20.1059 62.5212 20.0645 62.4589C19.94 62.1685 20.1889 62.7493 20.0645 62.4797C19.8155 61.8781 19.5873 61.2558 19.3591 60.6543C18.4257 58.0821 17.6997 55.427 16.8907 52.8134C15.7706 49.2871 14.4638 45.823 12.7629 42.5456C12.3895 41.8196 11.3109 41.5499 10.6264 41.9855C9.87961 42.4626 9.67214 43.3338 10.0663 44.122C10.4811 44.9103 10.8753 45.7193 11.2487 46.5282C11.4146 46.9016 11.6013 47.275 11.7465 47.6484C11.7257 47.6069 11.622 47.3372 11.7257 47.6069C11.7672 47.6899 11.8087 47.7936 11.8502 47.8765C11.9332 48.084 12.0161 48.2914 12.099 48.4781C12.6798 49.9301 13.1984 51.4029 13.6755 52.8964C14.5467 55.5722 15.2935 58.2896 16.2062 60.9447C17.0774 63.4753 18.1354 65.9852 19.6496 68.2048C20.4586 69.3871 21.3712 70.5902 22.4913 71.5029C23.6944 72.5193 25.0221 73.2453 26.4948 73.8054C29.4403 74.9463 32.6348 75.2781 35.6218 76.2738C35.6218 75.2781 35.6218 74.2825 35.6218 73.2661C31.0998 74.7181 28.5069 79.2193 27.0756 83.4509C26.3288 85.6289 25.8725 87.9107 25.6443 90.1924C25.3539 93.1379 25.5613 96.125 25.8102 99.0705C26.1006 102.701 26.4533 106.331 26.0384 109.961C27.0548 109.815 28.0713 109.691 29.0877 109.546C28.4239 106.289 27.4904 103.074 26.3288 99.9624C25.1465 96.8302 23.7567 93.7395 22.0765 90.8354C20.6452 88.3878 18.9236 86.0023 16.7248 84.1977C15.5217 83.2227 14.2771 82.4345 12.825 81.8744C11.539 81.3559 10.1907 81.2107 8.82167 81.0862C7.82601 81.0032 6.85112 80.8788 5.85545 80.8166C4.38269 80.7336 2.93064 80.7958 1.45788 80.8788C1.72754 81.8537 1.97642 82.8079 2.24608 83.7828C4.69376 82.2686 7.07923 80.6091 9.21577 78.6385C11.3316 76.6679 13.3022 74.4069 14.3601 71.6896C15.3765 69.076 15.5425 66.1512 15.4802 63.3509C15.418 60.1772 15.169 57.0035 14.7956 53.8713C14.36 50.179 13.7377 46.4868 12.9288 42.8567C12.7421 42.0685 11.788 41.5291 11.0205 41.7781C10.2945 42.1307 9.83806 42.919 10.0455 43.7694Z" fill="#E70002"/>
<path d="M91.6487 85.546C91.9391 86.6869 92.1673 87.8278 92.3333 89.0101C92.3125 88.8649 92.2917 88.7405 92.271 88.5953C92.5821 90.8978 92.6236 93.2625 92.3125 95.5649C92.3332 95.4197 92.3539 95.2953 92.3747 95.1501C92.1258 97.017 91.6487 98.8423 90.9227 100.564C90.9849 100.44 91.0264 100.315 91.0887 100.191C90.736 101.02 90.3419 101.829 89.8648 102.597C89.6367 102.991 89.367 103.385 89.0973 103.758C88.9729 103.924 88.8484 104.09 88.724 104.256C89.0559 103.821 88.7862 104.173 88.7032 104.277C88.6202 104.381 88.5372 104.484 88.4543 104.567C87.8735 105.273 87.2097 105.916 86.5252 106.517C86.3592 106.663 86.1726 106.808 86.0066 106.953C85.9029 107.036 85.5502 107.306 85.9858 106.974C85.8821 107.036 85.7992 107.119 85.6955 107.202C85.3013 107.492 84.8865 107.762 84.4716 108.032C83.6834 108.509 82.8951 108.923 82.0447 109.276C82.1691 109.214 82.2935 109.172 82.418 109.11C81.8165 109.359 81.215 109.608 80.6134 109.878C80.1986 110.064 79.8045 110.23 79.4933 110.541C78.788 111.205 78.9124 112.346 79.6384 112.906C80.0118 113.197 80.5097 113.28 80.9453 113.404C81.6921 113.632 82.4388 113.902 83.1648 114.213C83.0403 114.151 82.9159 114.109 82.7914 114.047C84.762 114.897 86.6704 115.955 88.3713 117.241C88.4128 117.283 88.4543 117.304 88.4958 117.345C88.1432 117.076 88.2883 117.2 88.3713 117.241C88.475 117.324 88.558 117.387 88.6617 117.47C88.8484 117.615 89.0351 117.781 89.201 117.926C89.5122 118.216 89.8233 118.507 90.1137 118.839C90.2589 118.984 90.3834 119.15 90.5286 119.316C90.5908 119.399 90.653 119.482 90.7152 119.565C90.7775 119.648 90.8813 119.793 90.5909 119.419C90.6323 119.482 90.6737 119.523 90.7152 119.585C90.9641 119.917 91.2131 120.27 91.4206 120.643C91.9599 121.494 92.3954 122.406 92.8103 123.34C92.7481 123.215 92.7066 123.091 92.6444 122.967C94.1379 126.534 94.8224 130.372 95.4861 134.168C95.6521 135.184 95.8388 136.201 96.0255 137.217C96.0877 137.57 96.4403 137.985 96.7307 138.151C97.0419 138.316 97.3738 138.379 97.7265 138.337C98.4939 138.233 99.054 137.59 99.0748 136.802C99.137 135.081 99.1992 133.359 99.2614 131.616C99.3237 129.957 99.3236 128.277 99.5518 126.617C99.5311 126.763 99.5104 126.887 99.4896 127.032C99.697 125.601 100.008 124.17 100.382 122.78C100.568 122.095 100.776 121.411 100.983 120.726C101.17 120.166 101.336 119.585 101.564 119.025C101.502 119.15 101.46 119.274 101.398 119.399C101.688 118.735 102.062 118.113 102.497 117.532C102.56 117.449 102.622 117.366 102.684 117.262C102.829 117.076 102.414 117.594 102.643 117.304C102.788 117.117 102.933 116.951 103.078 116.764C103.348 116.432 103.638 116.121 103.929 115.81C104.551 115.167 105.215 114.545 105.899 113.943C106.065 113.798 106.231 113.674 106.397 113.528C106.48 113.466 106.563 113.404 106.646 113.321C106.687 113.28 106.729 113.238 106.791 113.217C106.729 113.259 106.48 113.466 106.667 113.3C106.999 113.051 107.351 112.802 107.683 112.554C108.368 112.097 109.073 111.662 109.84 111.35C109.716 111.413 109.592 111.454 109.467 111.516C109.529 111.496 109.591 111.475 109.654 111.433C110.027 111.288 110.38 111.081 110.587 110.728C110.753 110.417 110.815 110.085 110.774 109.732C110.67 108.965 110.027 108.384 109.239 108.384C108.886 108.384 108.534 108.363 108.202 108.322C108.347 108.343 108.471 108.363 108.617 108.384C107.932 108.28 107.247 108.094 106.604 107.824C106.729 107.886 106.853 107.928 106.978 107.99C106.584 107.824 106.21 107.637 105.858 107.409C105.671 107.306 105.505 107.181 105.318 107.077C105.235 107.015 105.132 106.953 105.049 106.891C105.007 106.87 104.966 106.828 104.924 106.808C104.903 106.787 104.883 106.766 104.862 106.766C104.717 106.642 105.069 106.932 105.049 106.911C104.343 106.331 103.68 105.708 103.057 105.024C102.912 104.837 102.746 104.671 102.601 104.484C102.539 104.401 102.456 104.298 102.394 104.215C102.228 104.007 102.56 104.422 102.497 104.339C102.456 104.277 102.414 104.236 102.373 104.173C102.062 103.779 101.792 103.364 101.502 102.949C100.921 102.078 100.402 101.166 99.9252 100.232C99.3652 99.1535 98.8466 98.0334 98.3695 96.9132C98.4317 97.0377 98.4732 97.1622 98.5354 97.2866C97.1456 93.9885 96.0669 90.5451 95.175 87.0603C94.9676 86.2513 94.7809 85.4631 94.5942 84.6541C94.4075 83.8658 93.4533 83.3265 92.6858 83.5754C91.8976 83.9073 91.4412 84.6956 91.6487 85.546C92.0843 87.4336 92.5614 89.3213 93.1214 91.1882C93.7645 93.3662 94.5113 95.5442 95.3618 97.66C96.2745 99.8795 97.2909 102.078 98.5769 104.111C99.7178 105.936 101.087 107.72 102.767 109.069C103.576 109.712 104.426 110.313 105.381 110.728C106.439 111.184 107.476 111.475 108.637 111.579C108.866 111.599 109.094 111.599 109.301 111.599C109.156 110.583 109.031 109.567 108.886 108.55C107.185 109.214 105.712 110.251 104.302 111.392C102.891 112.533 101.564 113.819 100.444 115.25C99.8838 115.955 99.3651 116.661 98.9503 117.47C98.4732 118.424 98.1621 119.461 97.8509 120.477C97.1042 122.946 96.5026 125.456 96.3159 128.028C96.2121 129.48 96.1914 130.953 96.15 132.405C96.1085 133.898 96.0462 135.371 96.0047 136.864C97.0211 136.719 98.0376 136.595 99.054 136.45C98.3072 132.322 97.7471 128.132 96.4196 124.149C95.7351 122.137 94.8846 120.125 93.64 118.382C93.0177 117.49 92.3125 116.661 91.5243 115.914C90.6116 115.084 89.5951 114.337 88.558 113.674C87.4171 112.927 86.214 112.263 84.9695 111.703C84.2642 111.371 83.5382 111.081 82.7914 110.811C82.1899 110.604 81.5883 110.438 80.9867 110.251C81.1112 110.313 81.2357 110.355 81.3602 110.417C81.5469 110.604 81.7127 110.77 81.8994 110.956C81.9617 111.081 82.0032 111.205 82.0654 111.33C82.0862 111.475 82.1069 111.599 82.1276 111.745C82.1069 111.89 82.0862 112.014 82.0654 112.159C82.0032 112.284 81.9617 112.408 81.8994 112.533C81.775 112.719 81.6091 112.948 81.4224 113.031C81.4639 113.01 81.4846 112.989 81.5261 112.968C81.6298 112.906 81.7335 112.865 81.8372 112.802C82.1276 112.657 82.4388 112.533 82.7499 112.408C82.6255 112.471 82.501 112.512 82.3766 112.574C83.227 112.222 84.0982 111.869 84.9279 111.433C85.8821 110.936 86.7741 110.355 87.6245 109.712C89.4292 108.322 90.9849 106.683 92.2088 104.775C94.5735 101.145 95.6106 96.7473 95.6314 92.4535C95.6314 89.8813 95.2787 87.2884 94.6564 84.7993C94.449 84.011 93.5364 83.451 92.7481 83.7206C91.9184 83.9073 91.4205 84.6956 91.6487 85.546Z" fill="#E70002"/>
</svg>
